<mxfile host="app.diagrams.net" modified="2023-11-29T09:35:00.698Z" agent="Mozilla/5.0 (Windows NT 10.0; Win64; x64) AppleWebKit/537.36 (KHTML, like Gecko) Chrome/119.0.6045.9 Safari/537.36" etag="HmUDyP0mDR4sUrgXdZYD" version="22.1.4" type="github">
  <diagram name="软件" id="-skhoRBta84IdqyEYg0e">
    <mxGraphModel dx="2582" dy="1569" grid="1" gridSize="10" guides="1" tooltips="1" connect="1" arrows="1" fold="1" page="1" pageScale="1" pageWidth="827" pageHeight="1169" math="0" shadow="0">
      <root>
        <mxCell id="0" />
        <mxCell id="1" parent="0" />
        <mxCell id="ziF4D768FHLYJ19X23WQ-1" value="&lt;div style=&quot;font-size: 1px&quot;&gt;&lt;font style=&quot;font-size:25.4px;font-family:Microsoft YaHei;color:#1f477d;direction:ltr;letter-spacing:0px;line-height:120%;opacity:1&quot;&gt;&lt;b&gt;业&lt;br/&gt;&lt;br/&gt;务&lt;br/&gt;&lt;br/&gt;系&lt;br/&gt;&lt;br/&gt;统&lt;br/&gt;&lt;/b&gt;&lt;/font&gt;&lt;/div&gt;" style="verticalAlign=middle;align=center;vsdxID=70;fillColor=none;gradientColor=none;shape=stencil(nZBLDoAgDERP0z3SIyjew0SURgSD+Lu9kMZoXLhwN9O+tukAlrNpJg1SzDH4QW/URgNYgZTkjA4UkwJUgGXng+6DX1zLfmoymdXo17xh5zmRJ6Q42BWCfc2oJfdAr+Yv+AP9Cb7OJ3H/2JG1HNGz/84klThPVCc=);strokeColor=none;points=[[1,0.5,0],[0.5,0,0],[0.5,0.5,0],[0.5,0.5,0]];labelBackgroundColor=none;rounded=0;html=1;whiteSpace=wrap;" vertex="1" parent="1">
          <mxGeometry x="81" y="1104" width="35" height="297" as="geometry" />
        </mxCell>
        <mxCell id="ziF4D768FHLYJ19X23WQ-2" style="vsdxID=1157;fillColor=#fff2cc;gradientColor=none;shape=stencil(nZFLDsIwDERP4y0yiUBiXcoFOEFEDLEISZWm/E5PWhepdMGiWdkzz7Y0AV21zjQECtuc4pUebLMDvQelODhKnEsFugZdnWOiS4pdsNI3ppAKB4WszKx7WqFJpyO/adQ2q93P2wokW27x3l9/CotivcZJlP4gqOcwQb/mIvgPuhCcnS/FkI8kx95LvFN/nmeR5C90/QE=);strokeColor=#c8c8c8;points=[[1,0.5,0],[0.5,0,0],[0.5,0.5,0],[0.5,0.5,0]];labelBackgroundColor=none;rounded=1;html=1;whiteSpace=wrap;" vertex="1" parent="1">
          <mxGeometry x="187" y="89" width="1642" height="350" as="geometry" />
        </mxCell>
        <mxCell id="ziF4D768FHLYJ19X23WQ-3" value="&lt;div style=&quot;font-size: 1px&quot;&gt;&lt;font style=&quot;font-size:22.58px;font-family:Microsoft YaHei;color:#7f6000;direction:ltr;letter-spacing:0px;line-height:120%;opacity:1&quot;&gt;&lt;b&gt;数&lt;br/&gt;&lt;br/&gt;据&lt;br/&gt;&lt;br/&gt;应&lt;br/&gt;&lt;br/&gt;用&lt;br/&gt;&lt;/b&gt;&lt;/font&gt;&lt;/div&gt;" style="verticalAlign=middle;align=center;vsdxID=1189;fillColor=#fbe5d5;gradientColor=none;shape=stencil(nZFLDsIwDERP4y0yiUBiXcoFOEFEDLEISZWm/E5PWhepdMGiWdkzz7Y0AV21zjQECtuc4pUebLMDvQelODhKnEsFugZdnWOiS4pdsNI3ppAKB4WszKx7WqFJpyO/adQ2q93P2wokW27x3l9/CotivcZJlP4gqOcwQb/mIvgPuhCcnS/FkI8kx95LvFN/nmeR5C90/QE=);strokeColor=#bf9000;points=[[1,0.5,0],[0.5,0,0],[0.5,0.5,0],[0.5,0.5,0]];labelBackgroundColor=none;rounded=1;html=1;whiteSpace=wrap;" vertex="1" parent="1">
          <mxGeometry x="57" y="89" width="78" height="350" as="geometry" />
        </mxCell>
        <mxCell id="ziF4D768FHLYJ19X23WQ-4" value="&lt;div style=&quot;font-size: 1px&quot;&gt;&lt;font style=&quot;font-size:19.76px;font-family:Microsoft YaHei;color:#000000;direction:ltr;letter-spacing:0px;line-height:120%;opacity:1&quot;&gt;&lt;b&gt;集团内&lt;br&gt;&lt;/b&gt;&lt;/font&gt;&lt;/div&gt;" style="verticalAlign=middle;align=center;vsdxID=1192;fillColor=none;gradientColor=none;shape=stencil(nZBLDoAgDERP0z3SIyjew0SURgSD+Lu9kMZoXLhwN9O+tukAlrNpJg1SzDH4QW/URgNYgZTkjA4UkwJUgGXng+6DX1zLfmoymdXo17xh5zmRJ6Q42BWCfc2oJfdAr+Yv+AP9Cb7OJ3H/2JG1HNGz/84klThPVCc=);strokeColor=none;points=[[1,0.5,0],[0.5,0,0],[0.5,0.5,0],[0.5,0.5,0]];labelBackgroundColor=none;rounded=0;html=1;whiteSpace=wrap;" vertex="1" parent="1">
          <mxGeometry x="822" y="96" width="374" height="32" as="geometry" />
        </mxCell>
        <mxCell id="ziF4D768FHLYJ19X23WQ-5" value="&lt;div style=&quot;font-size: 1px&quot;&gt;&lt;p style=&quot;align:left;margin-left:0;margin-right:0;margin-top:0px;margin-bottom:0px;text-indent:0;valign:middle;direction:ltr;&quot;&gt;&lt;/p&gt;&lt;/div&gt;" style="verticalAlign=middle;align=left;vsdxID=1174;fillColor=none;gradientColor=none;shape=stencil(nZBLDoAgDERP0z3SIyjew0SURgSD+Lu9kMZoXLhwN9O+tukAlrNpJg1SzDH4QW/URgNYgZTkjA4UkwJUgGXng+6DX1zLfmoymdXo17xh5zmRJ6Q42BWCfc2oJfdAr+Yv+AP9Cb7OJ3H/2JG1HNGz/84klThPVCc=);strokeColor=#bf9000;points=[[1,0.5,0],[0.5,0,0],[0.5,0.5,0],[0.5,0.5,0]];labelBackgroundColor=none;rounded=0;html=1;whiteSpace=wrap;" vertex="1" parent="1">
          <mxGeometry x="915" y="170" width="465" height="112" as="geometry" />
        </mxCell>
        <mxCell id="ziF4D768FHLYJ19X23WQ-6" value="&lt;div style=&quot;font-size: 1px&quot;&gt;&lt;font style=&quot;font-size:16.93px;font-family:Microsoft YaHei;color:#7f6000;direction:ltr;letter-spacing:0px;line-height:120%;opacity:1&quot;&gt;&lt;b&gt;受试者筛选&lt;br/&gt;&lt;/b&gt;&lt;/font&gt;&lt;/div&gt;" style="verticalAlign=middle;align=center;vsdxID=1175;fillColor=#ffffff;gradientColor=none;shape=stencil(nZBLDoAgDERP0z3SIyjew0SURgSD+Lu9kMZoXLhwN9O+tukAlrNpJg1SzDH4QW/URgNYgZTkjA4UkwJUgGXng+6DX1zLfmoymdXo17xh5zmRJ6Q42BWCfc2oJfdAr+Yv+AP9Cb7OJ3H/2JG1HNGz/84klThPVCc=);strokeColor=#e6ac00;points=[[1,0.5,0],[0.5,0,0],[0.5,0.5,0],[0.5,0.5,0]];labelBackgroundColor=none;rounded=0;html=1;whiteSpace=wrap;" vertex="1" parent="1">
          <mxGeometry x="926" y="190" width="143" height="36" as="geometry" />
        </mxCell>
        <mxCell id="ziF4D768FHLYJ19X23WQ-7" value="&lt;div style=&quot;font-size: 1px&quot;&gt;&lt;font style=&quot;font-size:16.93px;font-family:Microsoft YaHei;color:#7f6000;direction:ltr;letter-spacing:0px;line-height:120%;opacity:1&quot;&gt;&lt;b&gt;临床数据搜索引擎&lt;/b&gt;&lt;/font&gt;&lt;font style=&quot;font-size:16.93px;font-family:Microsoft YaHei;color:#7f6000;direction:ltr;letter-spacing:0px;line-height:120%;opacity:1&quot;&gt;&lt;b&gt;&lt;br/&gt;&lt;/b&gt;&lt;/font&gt;&lt;/div&gt;" style="verticalAlign=middle;align=center;vsdxID=1176;fillColor=#ffffff;gradientColor=none;shape=stencil(nZBLDoAgDERP0z3SIyjew0SURgSD+Lu9kMZoXLhwN9O+tukAlrNpJg1SzDH4QW/URgNYgZTkjA4UkwJUgGXng+6DX1zLfmoymdXo17xh5zmRJ6Q42BWCfc2oJfdAr+Yv+AP9Cb7OJ3H/2JG1HNGz/84klThPVCc=);strokeColor=#e6ac00;points=[];labelBackgroundColor=none;rounded=0;html=1;whiteSpace=wrap;" vertex="1" parent="1">
          <mxGeometry x="1116" y="235" width="249" height="36" as="geometry" />
        </mxCell>
        <mxCell id="ziF4D768FHLYJ19X23WQ-8" value="&lt;div style=&quot;font-size: 1px&quot;&gt;&lt;font style=&quot;font-size:16.93px;font-family:Microsoft YaHei;color:#7f6000;direction:ltr;letter-spacing:0px;line-height:120%;opacity:1&quot;&gt;&lt;b&gt;临床科研平台&lt;/b&gt;&lt;/font&gt;&lt;font style=&quot;font-size:16.93px;font-family:Microsoft YaHei;color:#7f6000;direction:ltr;letter-spacing:0px;line-height:120%;opacity:1&quot;&gt;&lt;b&gt;&lt;br/&gt;&lt;/b&gt;&lt;/font&gt;&lt;/div&gt;" style="verticalAlign=middle;align=center;vsdxID=1177;fillColor=#ffffff;gradientColor=none;shape=stencil(nZBLDoAgDERP0z3SIyjew0SURgSD+Lu9kMZoXLhwN9O+tukAlrNpJg1SzDH4QW/URgNYgZTkjA4UkwJUgGXng+6DX1zLfmoymdXo17xh5zmRJ6Q42BWCfc2oJfdAr+Yv+AP9Cb7OJ3H/2JG1HNGz/84klThPVCc=);strokeColor=#e6ac00;points=[];labelBackgroundColor=none;rounded=0;html=1;whiteSpace=wrap;" vertex="1" parent="1">
          <mxGeometry x="926" y="235" width="185" height="36" as="geometry" />
        </mxCell>
        <mxCell id="ziF4D768FHLYJ19X23WQ-9" value="&lt;div style=&quot;font-size: 1px&quot;&gt;&lt;font style=&quot;font-size:16.93px;font-family:Microsoft YaHei;color:#7f6000;direction:ltr;letter-spacing:0px;line-height:120%;opacity:1&quot;&gt;&lt;b&gt;单病种数据库&lt;/b&gt;&lt;/font&gt;&lt;font style=&quot;font-size:16.93px;font-family:Microsoft YaHei;color:#7f6000;direction:ltr;letter-spacing:0px;line-height:120%;opacity:1&quot;&gt;&lt;b&gt;&lt;br/&gt;&lt;/b&gt;&lt;/font&gt;&lt;/div&gt;" style="verticalAlign=middle;align=center;vsdxID=1178;fillColor=#ffffff;gradientColor=none;shape=stencil(nZBLDoAgDERP0z3SIyjew0SURgSD+Lu9kMZoXLhwN9O+tukAlrNpJg1SzDH4QW/URgNYgZTkjA4UkwJUgGXng+6DX1zLfmoymdXo17xh5zmRJ6Q42BWCfc2oJfdAr+Yv+AP9Cb7OJ3H/2JG1HNGz/84klThPVCc=);strokeColor=#e6ac00;points=[[1,0.5,0],[0.5,0,0],[0.5,0.5,0],[0.5,0.5,0]];labelBackgroundColor=none;rounded=0;html=1;whiteSpace=wrap;" vertex="1" parent="1">
          <mxGeometry x="1073" y="190" width="143" height="36" as="geometry" />
        </mxCell>
        <mxCell id="ziF4D768FHLYJ19X23WQ-10" value="&lt;div style=&quot;font-size: 1px&quot;&gt;&lt;font style=&quot;font-size:16.93px;font-family:Microsoft YaHei;color:#7f6000;direction:ltr;letter-spacing:0px;line-height:120%;opacity:1&quot;&gt;&lt;b&gt;专科病种平台&lt;/b&gt;&lt;/font&gt;&lt;font style=&quot;font-size:16.93px;font-family:Microsoft YaHei;color:#7f6000;direction:ltr;letter-spacing:0px;line-height:120%;opacity:1&quot;&gt;&lt;b&gt;&lt;br/&gt;&lt;/b&gt;&lt;/font&gt;&lt;/div&gt;" style="verticalAlign=middle;align=center;vsdxID=1179;fillColor=#ffffff;gradientColor=none;shape=stencil(nZBLDoAgDERP0z3SIyjew0SURgSD+Lu9kMZoXLhwN9O+tukAlrNpJg1SzDH4QW/URgNYgZTkjA4UkwJUgGXng+6DX1zLfmoymdXo17xh5zmRJ6Q42BWCfc2oJfdAr+Yv+AP9Cb7OJ3H/2JG1HNGz/84klThPVCc=);strokeColor=#e6ac00;points=[];labelBackgroundColor=none;rounded=0;html=1;whiteSpace=wrap;" vertex="1" parent="1">
          <mxGeometry x="1221" y="190" width="143" height="36" as="geometry" />
        </mxCell>
        <mxCell id="ziF4D768FHLYJ19X23WQ-11" value="&lt;div style=&quot;font-size: 1px&quot;&gt;&lt;p style=&quot;align:left;margin-left:0;margin-right:0;margin-top:0px;margin-bottom:0px;text-indent:0;valign:middle;direction:ltr;&quot;&gt;&lt;/p&gt;&lt;/div&gt;" style="verticalAlign=middle;align=left;vsdxID=1184;fillColor=none;gradientColor=none;shape=stencil(nZBLDoAgDERP0z3SIyjew0SURgSD+Lu9kMZoXLhwN9O+tukAlrNpJg1SzDH4QW/URgNYgZTkjA4UkwJUgGXng+6DX1zLfmoymdXo17xh5zmRJ6Q42BWCfc2oJfdAr+Yv+AP9Cb7OJ3H/2JG1HNGz/84klThPVCc=);strokeColor=#bf9000;points=[[1,0.5,0],[0.5,0,0],[0.5,0.5,0],[0.5,0.5,0]];labelBackgroundColor=none;rounded=0;html=1;whiteSpace=wrap;" vertex="1" parent="1">
          <mxGeometry x="1404" y="172" width="382" height="110" as="geometry" />
        </mxCell>
        <mxCell id="ziF4D768FHLYJ19X23WQ-12" value="&lt;div style=&quot;font-size: 1px&quot;&gt;&lt;/div&gt;" style="verticalAlign=middle;align=center;vsdxID=1185;fillColor=#ffffff;gradientColor=none;shape=stencil(nZBLDoAgDERP0z3SIyjew0SURgSD+Lu9kMZoXLhwN9O+tukAlrNpJg1SzDH4QW/URgNYgZTkjA4UkwJUgGXng+6DX1zLfmoymdXo17xh5zmRJ6Q42BWCfc2oJfdAr+Yv+AP9Cb7OJ3H/2JG1HNGz/84klThPVCc=);strokeColor=#e6ac00;points=[[1,0.5,0],[0.5,0,0],[0.5,0.5,0],[0.5,0.5,0]];labelBackgroundColor=none;rounded=0;html=1;whiteSpace=wrap;" vertex="1" parent="1">
          <mxGeometry x="1413" y="190" width="174" height="36" as="geometry" />
        </mxCell>
        <mxCell id="ziF4D768FHLYJ19X23WQ-13" value="&lt;div style=&quot;font-size: 1px&quot;&gt;&lt;font style=&quot;font-size:16.93px;font-family:Microsoft YaHei;color:#7f6000;direction:ltr;letter-spacing:0px;line-height:120%;opacity:1&quot;&gt;&lt;b&gt;HQMS&lt;/b&gt;&lt;/font&gt;&lt;font style=&quot;font-size:16.93px;font-family:Microsoft YaHei;color:#7f6000;direction:ltr;letter-spacing:0px;line-height:120%;opacity:1&quot;&gt;&lt;b&gt;数据上报&lt;/b&gt;&lt;/font&gt;&lt;font style=&quot;font-size:16.93px;font-family:Microsoft YaHei;color:#7f6000;direction:ltr;letter-spacing:0px;line-height:120%;opacity:1&quot;&gt;&lt;b&gt;&lt;br/&gt;&lt;/b&gt;&lt;/font&gt;&lt;/div&gt;" style="verticalAlign=middle;align=center;vsdxID=1186;fillColor=#ffffff;gradientColor=none;shape=stencil(nZBLDoAgDERP0z3SIyjew0SURgSD+Lu9kMZoXLhwN9O+tukAlrNpJg1SzDH4QW/URgNYgZTkjA4UkwJUgGXng+6DX1zLfmoymdXo17xh5zmRJ6Q42BWCfc2oJfdAr+Yv+AP9Cb7OJ3H/2JG1HNGz/84klThPVCc=);strokeColor=#e6ac00;points=[];labelBackgroundColor=none;rounded=0;html=1;whiteSpace=wrap;" vertex="1" parent="1">
          <mxGeometry x="1594" y="190" width="174" height="36" as="geometry" />
        </mxCell>
        <mxCell id="ziF4D768FHLYJ19X23WQ-14" value="&lt;div style=&quot;font-size: 1px&quot;&gt;&lt;font style=&quot;font-size:16.93px;font-family:Microsoft YaHei;color:#7f6000;direction:ltr;letter-spacing:0px;line-height:120%;opacity:1&quot;&gt;&lt;b&gt;传染病上报&lt;/b&gt;&lt;/font&gt;&lt;font style=&quot;font-size:16.93px;font-family:Microsoft YaHei;color:#7f6000;direction:ltr;letter-spacing:0px;line-height:120%;opacity:1&quot;&gt;&lt;b&gt;&lt;br/&gt;&lt;/b&gt;&lt;/font&gt;&lt;/div&gt;" style="verticalAlign=middle;align=center;vsdxID=1187;fillColor=#ffffff;gradientColor=none;shape=stencil(nZBLDoAgDERP0z3SIyjew0SURgSD+Lu9kMZoXLhwN9O+tukAlrNpJg1SzDH4QW/URgNYgZTkjA4UkwJUgGXng+6DX1zLfmoymdXo17xh5zmRJ6Q42BWCfc2oJfdAr+Yv+AP9Cb7OJ3H/2JG1HNGz/84klThPVCc=);strokeColor=#e6ac00;points=[];labelBackgroundColor=none;rounded=0;html=1;whiteSpace=wrap;" vertex="1" parent="1">
          <mxGeometry x="1413" y="235" width="174" height="36" as="geometry" />
        </mxCell>
        <mxCell id="ziF4D768FHLYJ19X23WQ-15" value="&lt;div style=&quot;font-size: 1px&quot;&gt;&lt;font style=&quot;font-size:16.93px;font-family:Microsoft YaHei;color:#7f6000;direction:ltr;letter-spacing:0px;line-height:120%;opacity:1&quot;&gt;&lt;b&gt;卫生统计系统&lt;/b&gt;&lt;/font&gt;&lt;font style=&quot;font-size:16.93px;font-family:Microsoft YaHei;color:#7f6000;direction:ltr;letter-spacing:0px;line-height:120%;opacity:1&quot;&gt;&lt;b&gt;&lt;br/&gt;&lt;/b&gt;&lt;/font&gt;&lt;/div&gt;" style="verticalAlign=middle;align=center;vsdxID=1188;fillColor=#ffffff;gradientColor=none;shape=stencil(nZBLDoAgDERP0z3SIyjew0SURgSD+Lu9kMZoXLhwN9O+tukAlrNpJg1SzDH4QW/URgNYgZTkjA4UkwJUgGXng+6DX1zLfmoymdXo17xh5zmRJ6Q42BWCfc2oJfdAr+Yv+AP9Cb7OJ3H/2JG1HNGz/84klThPVCc=);strokeColor=#e6ac00;points=[[1,0.5,0],[0.5,0,0],[0.5,0.5,0],[0.5,0.5,0]];labelBackgroundColor=none;rounded=0;html=1;whiteSpace=wrap;" vertex="1" parent="1">
          <mxGeometry x="1594" y="235" width="174" height="36" as="geometry" />
        </mxCell>
        <mxCell id="ziF4D768FHLYJ19X23WQ-16" value="&lt;div style=&quot;font-size: 1px&quot;&gt;&lt;font style=&quot;font-size:19.76px;font-family:Microsoft YaHei;color:#000000;direction:ltr;letter-spacing:0px;line-height:120%;opacity:1&quot;&gt;&lt;b&gt;科研&lt;br/&gt;&lt;/b&gt;&lt;/font&gt;&lt;/div&gt;" style="verticalAlign=middle;align=center;vsdxID=1200;fillColor=#fec000;gradientColor=none;shape=stencil(nZBLDoAgDERP0z3SIyjew0SURgSD+Lu9kMZoXLhwN9O+tukAlrNpJg1SzDH4QW/URgNYgZTkjA4UkwJUgGXng+6DX1zLfmoymdXo17xh5zmRJ6Q42BWCfc2oJfdAr+Yv+AP9Cb7OJ3H/2JG1HNGz/84klThPVCc=);strokeColor=#bf9000;points=[[1,0.5,0],[0.5,0,0],[0.5,0.5,0],[0.5,0.5,0]];labelBackgroundColor=none;rounded=0;html=1;whiteSpace=wrap;" vertex="1" parent="1">
          <mxGeometry x="915" y="140" width="465" height="36" as="geometry" />
        </mxCell>
        <mxCell id="ziF4D768FHLYJ19X23WQ-17" value="&lt;div style=&quot;font-size: 1px&quot;&gt;&lt;font style=&quot;font-size:19.76px;font-family:Microsoft YaHei;color:#000000;direction:ltr;letter-spacing:0px;line-height:120%;opacity:1&quot;&gt;&lt;b&gt;其他&lt;br/&gt;&lt;/b&gt;&lt;/font&gt;&lt;/div&gt;" style="verticalAlign=middle;align=center;vsdxID=1222;fillColor=#fec000;gradientColor=none;shape=stencil(nZBLDoAgDERP0z3SIyjew0SURgSD+Lu9kMZoXLhwN9O+tukAlrNpJg1SzDH4QW/URgNYgZTkjA4UkwJUgGXng+6DX1zLfmoymdXo17xh5zmRJ6Q42BWCfc2oJfdAr+Yv+AP9Cb7OJ3H/2JG1HNGz/84klThPVCc=);strokeColor=#bf9000;points=[[1,0.5,0],[0.5,0,0],[0.5,0.5,0],[0.5,0.5,0]];labelBackgroundColor=none;rounded=0;html=1;whiteSpace=wrap;" vertex="1" parent="1">
          <mxGeometry x="1403" y="140" width="382" height="36" as="geometry" />
        </mxCell>
        <mxCell id="ziF4D768FHLYJ19X23WQ-18" value="&lt;div style=&quot;font-size: 1px&quot;&gt;&lt;p style=&quot;align:left;margin-left:0;margin-right:0;margin-top:0px;margin-bottom:0px;text-indent:0;valign:middle;direction:ltr;&quot;&gt;&lt;/p&gt;&lt;/div&gt;" style="verticalAlign=middle;align=left;vsdxID=1223;fillColor=none;gradientColor=none;shape=stencil(nZBLDoAgDERP0z3SIyjew0SURgSD+Lu9kMZoXLhwN9O+tukAlrNpJg1SzDH4QW/URgNYgZTkjA4UkwJUgGXng+6DX1zLfmoymdXo17xh5zmRJ6Q42BWCfc2oJfdAr+Yv+AP9Cb7OJ3H/2JG1HNGz/84klThPVCc=);strokeColor=#bf9000;points=[[1,0.5,0],[0.5,0,0],[0.5,0.5,0],[0.5,0.5,0]];labelBackgroundColor=none;rounded=0;html=1;whiteSpace=wrap;" vertex="1" parent="1">
          <mxGeometry x="915" y="320" width="873" height="103" as="geometry" />
        </mxCell>
        <mxCell id="ziF4D768FHLYJ19X23WQ-19" value="&lt;div style=&quot;font-size: 1px&quot;&gt;&lt;font style=&quot;font-size:16.93px;font-family:Microsoft YaHei;color:#7f6000;direction:ltr;letter-spacing:0px;line-height:120%;opacity:1&quot;&gt;&lt;b&gt;医疗集团决策支持&lt;/b&gt;&lt;/font&gt;&lt;font style=&quot;font-size:16.93px;font-family:Microsoft YaHei;color:#7f6000;direction:ltr;letter-spacing:0px;line-height:120%;opacity:1&quot;&gt;&lt;b&gt;&lt;br/&gt;&lt;/b&gt;&lt;/font&gt;&lt;/div&gt;" style="verticalAlign=middle;align=center;vsdxID=1224;fillColor=#ffffff;gradientColor=none;shape=stencil(nZBLDoAgDERP0z3SIyjew0SURgSD+Lu9kMZoXLhwN9O+tukAlrNpJg1SzDH4QW/URgNYgZTkjA4UkwJUgGXng+6DX1zLfmoymdXo17xh5zmRJ6Q42BWCfc2oJfdAr+Yv+AP9Cb7OJ3H/2JG1HNGz/84klThPVCc=);strokeColor=#e6ac00;points=[];labelBackgroundColor=none;rounded=0;html=1;whiteSpace=wrap;" vertex="1" parent="1">
          <mxGeometry x="1512" y="336" width="254" height="32" as="geometry" />
        </mxCell>
        <mxCell id="ziF4D768FHLYJ19X23WQ-20" value="&lt;div style=&quot;font-size: 1px&quot;&gt;&lt;font style=&quot;font-size:16.93px;font-family:Microsoft YaHei;color:#7f6000;direction:ltr;letter-spacing:0px;line-height:120%;opacity:1&quot;&gt;&lt;b&gt;精细化运营管理&lt;br/&gt;&lt;/b&gt;&lt;/font&gt;&lt;/div&gt;" style="verticalAlign=middle;align=center;vsdxID=1225;fillColor=#ffffff;gradientColor=none;shape=stencil(nZBLDoAgDERP0z3SIyjew0SURgSD+Lu9kMZoXLhwN9O+tukAlrNpJg1SzDH4QW/URgNYgZTkjA4UkwJUgGXng+6DX1zLfmoymdXo17xh5zmRJ6Q42BWCfc2oJfdAr+Yv+AP9Cb7OJ3H/2JG1HNGz/84klThPVCc=);strokeColor=#e6ac00;points=[[1,0.5,0],[0.5,0,0],[0.5,0.5,0],[0.5,0.5,0]];labelBackgroundColor=none;rounded=0;html=1;whiteSpace=wrap;" vertex="1" parent="1">
          <mxGeometry x="934" y="378" width="254" height="32" as="geometry" />
        </mxCell>
        <mxCell id="ziF4D768FHLYJ19X23WQ-21" value="&lt;div style=&quot;font-size: 1px&quot;&gt;&lt;font style=&quot;font-size:16.93px;font-family:Microsoft YaHei;color:#7f6000;direction:ltr;letter-spacing:0px;line-height:120%;opacity:1&quot;&gt;&lt;b&gt;医保费用监控&lt;br/&gt;&lt;/b&gt;&lt;/font&gt;&lt;/div&gt;" style="verticalAlign=middle;align=center;vsdxID=1226;fillColor=#ffffff;gradientColor=none;shape=stencil(nZBLDoAgDERP0z3SIyjew0SURgSD+Lu9kMZoXLhwN9O+tukAlrNpJg1SzDH4QW/URgNYgZTkjA4UkwJUgGXng+6DX1zLfmoymdXo17xh5zmRJ6Q42BWCfc2oJfdAr+Yv+AP9Cb7OJ3H/2JG1HNGz/84klThPVCc=);strokeColor=#e6ac00;points=[];labelBackgroundColor=none;rounded=0;html=1;whiteSpace=wrap;" vertex="1" parent="1">
          <mxGeometry x="1223" y="378" width="254" height="32" as="geometry" />
        </mxCell>
        <mxCell id="ziF4D768FHLYJ19X23WQ-22" value="&lt;div style=&quot;font-size: 1px&quot;&gt;&lt;font style=&quot;font-size:16.93px;font-family:Microsoft YaHei;color:#7f6000;direction:ltr;letter-spacing:0px;line-height:120%;opacity:1&quot;&gt;&lt;b&gt;等级评审管理&lt;/b&gt;&lt;/font&gt;&lt;font style=&quot;font-size:16.93px;font-family:Microsoft YaHei;color:#7f6000;direction:ltr;letter-spacing:0px;line-height:120%;opacity:1&quot;&gt;&lt;b&gt;&lt;br/&gt;&lt;/b&gt;&lt;/font&gt;&lt;/div&gt;" style="verticalAlign=middle;align=center;vsdxID=1228;fillColor=#ffffff;gradientColor=none;shape=stencil(nZBLDoAgDERP0z3SIyjew0SURgSD+Lu9kMZoXLhwN9O+tukAlrNpJg1SzDH4QW/URgNYgZTkjA4UkwJUgGXng+6DX1zLfmoymdXo17xh5zmRJ6Q42BWCfc2oJfdAr+Yv+AP9Cb7OJ3H/2JG1HNGz/84klThPVCc=);strokeColor=#e6ac00;points=[];labelBackgroundColor=none;rounded=0;html=1;whiteSpace=wrap;" vertex="1" parent="1">
          <mxGeometry x="1512" y="378" width="254" height="32" as="geometry" />
        </mxCell>
        <mxCell id="ziF4D768FHLYJ19X23WQ-23" value="&lt;div style=&quot;font-size: 1px&quot;&gt;&lt;font style=&quot;font-size:16.93px;font-family:Microsoft YaHei;color:#7f6000;direction:ltr;letter-spacing:0px;line-height:120%;opacity:1&quot;&gt;&lt;b&gt;院长决策支持&lt;/b&gt;&lt;/font&gt;&lt;font style=&quot;font-size:16.93px;font-family:Microsoft YaHei;color:#7f6000;direction:ltr;letter-spacing:0px;line-height:120%;opacity:1&quot;&gt;&lt;b&gt;&lt;br/&gt;&lt;/b&gt;&lt;/font&gt;&lt;/div&gt;" style="verticalAlign=middle;align=center;vsdxID=1229;fillColor=#ffffff;gradientColor=none;shape=stencil(nZBLDoAgDERP0z3SIyjew0SURgSD+Lu9kMZoXLhwN9O+tukAlrNpJg1SzDH4QW/URgNYgZTkjA4UkwJUgGXng+6DX1zLfmoymdXo17xh5zmRJ6Q42BWCfc2oJfdAr+Yv+AP9Cb7OJ3H/2JG1HNGz/84klThPVCc=);strokeColor=#e6ac00;points=[[1,0.5,0],[0.5,0,0],[0.5,0.5,0],[0.5,0.5,0]];labelBackgroundColor=none;rounded=0;html=1;whiteSpace=wrap;" vertex="1" parent="1">
          <mxGeometry x="934" y="336" width="254" height="32" as="geometry" />
        </mxCell>
        <mxCell id="ziF4D768FHLYJ19X23WQ-24" value="&lt;div style=&quot;font-size: 1px&quot;&gt;&lt;font style=&quot;font-size:16.93px;font-family:Microsoft YaHei;color:#7f6000;direction:ltr;letter-spacing:0px;line-height:120%;opacity:1&quot;&gt;&lt;b&gt;科主任决策支持&lt;/b&gt;&lt;/font&gt;&lt;font style=&quot;font-size:16.93px;font-family:Microsoft YaHei;color:#7f6000;direction:ltr;letter-spacing:0px;line-height:120%;opacity:1&quot;&gt;&lt;b&gt;&lt;br/&gt;&lt;/b&gt;&lt;/font&gt;&lt;/div&gt;" style="verticalAlign=middle;align=center;vsdxID=1230;fillColor=#ffffff;gradientColor=none;shape=stencil(nZBLDoAgDERP0z3SIyjew0SURgSD+Lu9kMZoXLhwN9O+tukAlrNpJg1SzDH4QW/URgNYgZTkjA4UkwJUgGXng+6DX1zLfmoymdXo17xh5zmRJ6Q42BWCfc2oJfdAr+Yv+AP9Cb7OJ3H/2JG1HNGz/84klThPVCc=);strokeColor=#e6ac00;points=[];labelBackgroundColor=none;rounded=0;html=1;whiteSpace=wrap;" vertex="1" parent="1">
          <mxGeometry x="1223" y="336" width="254" height="32" as="geometry" />
        </mxCell>
        <mxCell id="ziF4D768FHLYJ19X23WQ-25" value="&lt;div style=&quot;font-size: 1px&quot;&gt;&lt;font style=&quot;font-size:19.76px;font-family:Microsoft YaHei;color:#000000;direction:ltr;letter-spacing:0px;line-height:120%;opacity:1&quot;&gt;&lt;b&gt;运营&lt;br/&gt;&lt;/b&gt;&lt;/font&gt;&lt;/div&gt;" style="verticalAlign=middle;align=center;vsdxID=1231;fillColor=#fec000;gradientColor=none;shape=stencil(nZBLDoAgDERP0z3SIyjew0SURgSD+Lu9kMZoXLhwN9O+tukAlrNpJg1SzDH4QW/URgNYgZTkjA4UkwJUgGXng+6DX1zLfmoymdXo17xh5zmRJ6Q42BWCfc2oJfdAr+Yv+AP9Cb7OJ3H/2JG1HNGz/84klThPVCc=);strokeColor=#bf9000;points=[[1,0.5,0],[0.5,0,0],[0.5,0.5,0],[0.5,0.5,0]];labelBackgroundColor=none;rounded=0;html=1;whiteSpace=wrap;" vertex="1" parent="1">
          <mxGeometry x="914" y="290" width="874" height="32" as="geometry" />
        </mxCell>
        <mxCell id="ziF4D768FHLYJ19X23WQ-26" value="&lt;div style=&quot;font-size: 1px&quot;&gt;&lt;p style=&quot;align:left;margin-left:0;margin-right:0;margin-top:0px;margin-bottom:0px;text-indent:0;valign:middle;direction:ltr;&quot;&gt;&lt;/p&gt;&lt;/div&gt;" style="verticalAlign=middle;align=left;vsdxID=1165;fillColor=none;gradientColor=none;shape=stencil(nZBLDoAgDERP0z3SIyjew0SURgSD+Lu9kMZoXLhwN9O+tukAlrNpJg1SzDH4QW/URgNYgZTkjA4UkwJUgGXng+6DX1zLfmoymdXo17xh5zmRJ6Q42BWCfc2oJfdAr+Yv+AP9Cb7OJ3H/2JG1HNGz/84klThPVCc=);strokeColor=#bf9000;points=[[1,0.5,0],[0.5,0,0],[0.5,0.5,0],[0.5,0.5,0]];labelBackgroundColor=none;rounded=0;html=1;whiteSpace=wrap;" vertex="1" parent="1">
          <mxGeometry x="250" y="171" width="622" height="254" as="geometry" />
        </mxCell>
        <mxCell id="ziF4D768FHLYJ19X23WQ-27" value="&lt;div style=&quot;font-size: 1px&quot;&gt;&lt;font style=&quot;font-size:16.93px;font-family:Microsoft YaHei;color:#7f6000;direction:ltr;letter-spacing:0px;line-height:120%;opacity:1&quot;&gt;&lt;b&gt;患者360视图&lt;/b&gt;&lt;/font&gt;&lt;font style=&quot;font-size:16.93px;font-family:Microsoft YaHei;color:#7f6000;direction:ltr;letter-spacing:0px;line-height:120%;opacity:1&quot;&gt;&lt;b&gt;&lt;br/&gt;&lt;/b&gt;&lt;/font&gt;&lt;/div&gt;" style="verticalAlign=middle;align=center;vsdxID=1166;fillColor=#ffffff;gradientColor=none;shape=stencil(nZBLDoAgDERP0z3SIyjew0SURgSD+Lu9kMZoXLhwN9O+tukAlrNpJg1SzDH4QW/URgNYgZTkjA4UkwJUgGXng+6DX1zLfmoymdXo17xh5zmRJ6Q42BWCfc2oJfdAr+Yv+AP9Cb7OJ3H/2JG1HNGz/84klThPVCc=);strokeColor=#e6ac00;points=[[1,0.5,0],[0.5,0,0],[0.5,0.5,0],[0.5,0.5,0]];labelBackgroundColor=none;rounded=0;html=1;whiteSpace=wrap;" vertex="1" parent="1">
          <mxGeometry x="276" y="189" width="187" height="35" as="geometry" />
        </mxCell>
        <mxCell id="ziF4D768FHLYJ19X23WQ-28" value="&lt;div style=&quot;font-size: 1px&quot;&gt;&lt;font style=&quot;font-size:16.93px;font-family:Microsoft YaHei;color:#7f6000;direction:ltr;letter-spacing:0px;line-height:120%;opacity:1&quot;&gt;&lt;b&gt;电子病历浏览器&lt;/b&gt;&lt;/font&gt;&lt;font style=&quot;font-size:16.93px;font-family:Microsoft YaHei;color:#7f6000;direction:ltr;letter-spacing:0px;line-height:120%;opacity:1&quot;&gt;&lt;b&gt;&lt;br/&gt;&lt;/b&gt;&lt;/font&gt;&lt;/div&gt;" style="verticalAlign=middle;align=center;vsdxID=1167;fillColor=#ffffff;gradientColor=none;shape=stencil(nZBLDoAgDERP0z3SIyjew0SURgSD+Lu9kMZoXLhwN9O+tukAlrNpJg1SzDH4QW/URgNYgZTkjA4UkwJUgGXng+6DX1zLfmoymdXo17xh5zmRJ6Q42BWCfc2oJfdAr+Yv+AP9Cb7OJ3H/2JG1HNGz/84klThPVCc=);strokeColor=#e6ac00;points=[];labelBackgroundColor=none;rounded=0;html=1;whiteSpace=wrap;" vertex="1" parent="1">
          <mxGeometry x="276" y="279" width="187" height="35" as="geometry" />
        </mxCell>
        <mxCell id="ziF4D768FHLYJ19X23WQ-29" value="&lt;div style=&quot;font-size: 1px&quot;&gt;&lt;font style=&quot;font-size:16.93px;font-family:Microsoft YaHei;color:#7f6000;direction:ltr;letter-spacing:0px;line-height:120%;opacity:1&quot;&gt;&lt;b&gt;CDR&lt;/b&gt;&lt;/font&gt;&lt;font style=&quot;font-size:16.93px;font-family:Microsoft YaHei;color:#7f6000;direction:ltr;letter-spacing:0px;line-height:120%;opacity:1&quot;&gt;&lt;b&gt;浏览器&lt;/b&gt;&lt;/font&gt;&lt;font style=&quot;font-size:16.93px;font-family:Microsoft YaHei;color:#7f6000;direction:ltr;letter-spacing:0px;line-height:120%;opacity:1&quot;&gt;&lt;b&gt;&lt;br/&gt;&lt;/b&gt;&lt;/font&gt;&lt;/div&gt;" style="verticalAlign=middle;align=center;vsdxID=1168;fillColor=#ffffff;gradientColor=none;shape=stencil(nZBLDoAgDERP0z3SIyjew0SURgSD+Lu9kMZoXLhwN9O+tukAlrNpJg1SzDH4QW/URgNYgZTkjA4UkwJUgGXng+6DX1zLfmoymdXo17xh5zmRJ6Q42BWCfc2oJfdAr+Yv+AP9Cb7OJ3H/2JG1HNGz/84klThPVCc=);strokeColor=#e6ac00;points=[];labelBackgroundColor=none;rounded=0;html=1;whiteSpace=wrap;" vertex="1" parent="1">
          <mxGeometry x="276" y="369" width="187" height="35" as="geometry" />
        </mxCell>
        <mxCell id="ziF4D768FHLYJ19X23WQ-30" value="&lt;div style=&quot;font-size: 1px&quot;&gt;&lt;font style=&quot;font-size:16.93px;font-family:Microsoft YaHei;color:#7f6000;direction:ltr;letter-spacing:0px;line-height:120%;opacity:1&quot;&gt;&lt;b&gt;重点业务闭环管理&lt;br/&gt;&lt;/b&gt;&lt;/font&gt;&lt;/div&gt;" style="verticalAlign=middle;align=center;vsdxID=1169;fillColor=#ffffff;gradientColor=none;shape=stencil(nZBLDoAgDERP0z3SIyjew0SURgSD+Lu9kMZoXLhwN9O+tukAlrNpJg1SzDH4QW/URgNYgZTkjA4UkwJUgGXng+6DX1zLfmoymdXo17xh5zmRJ6Q42BWCfc2oJfdAr+Yv+AP9Cb7OJ3H/2JG1HNGz/84klThPVCc=);strokeColor=#e6ac00;points=[[1,0.5,0],[0.5,0,0],[0.5,0.5,0],[0.5,0.5,0]];labelBackgroundColor=none;rounded=0;html=1;whiteSpace=wrap;" vertex="1" parent="1">
          <mxGeometry x="473" y="189" width="383" height="35" as="geometry" />
        </mxCell>
        <mxCell id="ziF4D768FHLYJ19X23WQ-31" value="&lt;div style=&quot;font-size: 1px&quot;&gt;&lt;font style=&quot;font-size:16.93px;font-family:Microsoft YaHei;color:#7f6000;direction:ltr;letter-spacing:0px;line-height:120%;opacity:1&quot;&gt;&lt;b&gt;临床知识库&lt;/b&gt;&lt;/font&gt;&lt;font style=&quot;font-size:16.93px;font-family:Microsoft YaHei;color:#7f6000;direction:ltr;letter-spacing:0px;line-height:120%;opacity:1&quot;&gt;&lt;b&gt;&lt;br/&gt;&lt;/b&gt;&lt;/font&gt;&lt;/div&gt;" style="verticalAlign=middle;align=center;vsdxID=1170;fillColor=#ffffff;gradientColor=none;shape=stencil(nZBLDoAgDERP0z3SIyjew0SURgSD+Lu9kMZoXLhwN9O+tukAlrNpJg1SzDH4QW/URgNYgZTkjA4UkwJUgGXng+6DX1zLfmoymdXo17xh5zmRJ6Q42BWCfc2oJfdAr+Yv+AP9Cb7OJ3H/2JG1HNGz/84klThPVCc=);strokeColor=#e6ac00;points=[];labelBackgroundColor=none;rounded=0;html=1;whiteSpace=wrap;" vertex="1" parent="1">
          <mxGeometry x="276" y="324" width="187" height="35" as="geometry" />
        </mxCell>
        <mxCell id="ziF4D768FHLYJ19X23WQ-32" value="&lt;div style=&quot;font-size: 1px&quot;&gt;&lt;font style=&quot;font-size:16.93px;font-family:Microsoft YaHei;color:#7f6000;direction:ltr;letter-spacing:0px;line-height:120%;opacity:1&quot;&gt;&lt;b&gt;基于大数据的临床科研系统&lt;/b&gt;&lt;/font&gt;&lt;font style=&quot;font-size:16.93px;font-family:Microsoft YaHei;color:#7f6000;direction:ltr;letter-spacing:0px;line-height:120%;opacity:1&quot;&gt;&lt;b&gt;&lt;br/&gt;&lt;/b&gt;&lt;/font&gt;&lt;/div&gt;" style="verticalAlign=middle;align=center;vsdxID=1171;fillColor=#ffffff;gradientColor=none;shape=stencil(nZBLDoAgDERP0z3SIyjew0SURgSD+Lu9kMZoXLhwN9O+tukAlrNpJg1SzDH4QW/URgNYgZTkjA4UkwJUgGXng+6DX1zLfmoymdXo17xh5zmRJ6Q42BWCfc2oJfdAr+Yv+AP9Cb7OJ3H/2JG1HNGz/84klThPVCc=);strokeColor=#e6ac00;points=[[1,0.5,0],[0.5,0,0],[0.5,0.5,0],[0.5,0.5,0]];labelBackgroundColor=none;rounded=0;html=1;whiteSpace=wrap;" vertex="1" parent="1">
          <mxGeometry x="473" y="279" width="383" height="35" as="geometry" />
        </mxCell>
        <mxCell id="ziF4D768FHLYJ19X23WQ-33" value="&lt;div style=&quot;font-size: 1px&quot;&gt;&lt;font style=&quot;font-size:16.93px;font-family:Microsoft YaHei;color:#7f6000;direction:ltr;letter-spacing:0px;line-height:120%;opacity:1&quot;&gt;&lt;b&gt;基于大数据的临床决策&lt;/b&gt;&lt;/font&gt;&lt;font style=&quot;font-size:16.93px;font-family:Microsoft YaHei;color:#7f6000;direction:ltr;letter-spacing:0px;line-height:120%;opacity:1&quot;&gt;&lt;b&gt;支持&lt;/b&gt;&lt;/font&gt;&lt;font style=&quot;font-size:16.93px;font-family:Microsoft YaHei;color:#7f6000;direction:ltr;letter-spacing:0px;line-height:120%;opacity:1&quot;&gt;&lt;b&gt;&lt;br/&gt;&lt;/b&gt;&lt;/font&gt;&lt;/div&gt;" style="verticalAlign=middle;align=center;vsdxID=1172;fillColor=#ffffff;gradientColor=none;shape=stencil(nZBLDoAgDERP0z3SIyjew0SURgSD+Lu9kMZoXLhwN9O+tukAlrNpJg1SzDH4QW/URgNYgZTkjA4UkwJUgGXng+6DX1zLfmoymdXo17xh5zmRJ6Q42BWCfc2oJfdAr+Yv+AP9Cb7OJ3H/2JG1HNGz/84klThPVCc=);strokeColor=#e6ac00;points=[[1,0.5,0],[0.5,0,0],[0.5,0.5,0],[0.5,0.5,0]];labelBackgroundColor=none;rounded=0;html=1;whiteSpace=wrap;" vertex="1" parent="1">
          <mxGeometry x="473" y="324" width="383" height="35" as="geometry" />
        </mxCell>
        <mxCell id="ziF4D768FHLYJ19X23WQ-34" value="&lt;div style=&quot;font-size: 1px&quot;&gt;&lt;font style=&quot;font-size:16.93px;font-family:Microsoft YaHei;color:#7f6000;direction:ltr;letter-spacing:0px;line-height:120%;opacity:1&quot;&gt;&lt;b&gt;医院运行、医疗质量与安全监测指标管理&lt;br/&gt;&lt;/b&gt;&lt;/font&gt;&lt;/div&gt;" style="verticalAlign=middle;align=center;vsdxID=1173;fillColor=#ffffff;gradientColor=none;shape=stencil(nZBLDoAgDERP0z3SIyjew0SURgSD+Lu9kMZoXLhwN9O+tukAlrNpJg1SzDH4QW/URgNYgZTkjA4UkwJUgGXng+6DX1zLfmoymdXo17xh5zmRJ6Q42BWCfc2oJfdAr+Yv+AP9Cb7OJ3H/2JG1HNGz/84klThPVCc=);strokeColor=#e6ac00;points=[[1,0.5,0],[0.5,0,0],[0.5,0.5,0],[0.5,0.5,0]];labelBackgroundColor=none;rounded=0;html=1;whiteSpace=wrap;" vertex="1" parent="1">
          <mxGeometry x="473" y="369" width="383" height="35" as="geometry" />
        </mxCell>
        <mxCell id="ziF4D768FHLYJ19X23WQ-35" value="&lt;div style=&quot;font-size: 1px&quot;&gt;&lt;font style=&quot;font-size:19.76px;font-family:Microsoft YaHei;color:#000000;direction:ltr;letter-spacing:0px;line-height:120%;opacity:1&quot;&gt;&lt;b&gt;临床&lt;br/&gt;&lt;/b&gt;&lt;/font&gt;&lt;/div&gt;" style="verticalAlign=middle;align=center;vsdxID=1199;fillColor=#fec000;gradientColor=none;shape=stencil(nZBLDoAgDERP0z3SIyjew0SURgSD+Lu9kMZoXLhwN9O+tukAlrNpJg1SzDH4QW/URgNYgZTkjA4UkwJUgGXng+6DX1zLfmoymdXo17xh5zmRJ6Q42BWCfc2oJfdAr+Yv+AP9Cb7OJ3H/2JG1HNGz/84klThPVCc=);strokeColor=#bf9000;points=[[1,0.5,0],[0.5,0,0],[0.5,0.5,0],[0.5,0.5,0]];labelBackgroundColor=none;rounded=0;html=1;whiteSpace=wrap;" vertex="1" parent="1">
          <mxGeometry x="250" y="139" width="622" height="35" as="geometry" />
        </mxCell>
        <mxCell id="ziF4D768FHLYJ19X23WQ-36" value="&lt;div style=&quot;font-size: 1px&quot;&gt;&lt;font style=&quot;font-size:16.93px;font-family:Microsoft YaHei;color:#7f6000;direction:ltr;letter-spacing:0px;line-height:120%;opacity:1&quot;&gt;&lt;b&gt;医嘱闭环管理&lt;br/&gt;&lt;/b&gt;&lt;/font&gt;&lt;/div&gt;" style="verticalAlign=middle;align=center;vsdxID=1208;fillColor=#ffffff;gradientColor=none;shape=stencil(nZBLDoAgDERP0z3SIyjew0SURgSD+Lu9kMZoXLhwN9O+tukAlrNpJg1SzDH4QW/URgNYgZTkjA4UkwJUgGXng+6DX1zLfmoymdXo17xh5zmRJ6Q42BWCfc2oJfdAr+Yv+AP9Cb7OJ3H/2JG1HNGz/84klThPVCc=);strokeColor=#e6ac00;points=[];labelBackgroundColor=none;rounded=0;html=1;whiteSpace=wrap;" vertex="1" parent="1">
          <mxGeometry x="276" y="234" width="187" height="35" as="geometry" />
        </mxCell>
        <mxCell id="ziF4D768FHLYJ19X23WQ-37" value="&lt;div style=&quot;font-size: 1px&quot;&gt;&lt;font style=&quot;font-size:16.93px;font-family:Microsoft YaHei;color:#7f6000;direction:ltr;letter-spacing:0px;line-height:120%;opacity:1&quot;&gt;&lt;b&gt;基于知识库的临床决策支持&lt;/b&gt;&lt;/font&gt;&lt;font style=&quot;font-size:16.93px;font-family:Microsoft YaHei;color:#7f6000;direction:ltr;letter-spacing:0px;line-height:120%;opacity:1&quot;&gt;&lt;b&gt;&lt;br/&gt;&lt;/b&gt;&lt;/font&gt;&lt;/div&gt;" style="verticalAlign=middle;align=center;vsdxID=1209;fillColor=#ffffff;gradientColor=none;shape=stencil(nZBLDoAgDERP0z3SIyjew0SURgSD+Lu9kMZoXLhwN9O+tukAlrNpJg1SzDH4QW/URgNYgZTkjA4UkwJUgGXng+6DX1zLfmoymdXo17xh5zmRJ6Q42BWCfc2oJfdAr+Yv+AP9Cb7OJ3H/2JG1HNGz/84klThPVCc=);strokeColor=#e6ac00;points=[[1,0.5,0],[0.5,0,0],[0.5,0.5,0],[0.5,0.5,0]];labelBackgroundColor=none;rounded=0;html=1;whiteSpace=wrap;" vertex="1" parent="1">
          <mxGeometry x="473" y="234" width="383" height="35" as="geometry" />
        </mxCell>
        <mxCell id="ziF4D768FHLYJ19X23WQ-38" style="vsdxID=1417;fillColor=#70ad47;gradientColor=none;shape=stencil(nZFLDsIwDERP4y0yiUBiXcoFOEFEDLEISZWm/E5PWhepdMGiWdkzz7Y0AV21zjQECtuc4pUebLMDvQelODhKnEsFugZdnWOiS4pdsNI3ppAKB4WszKx7WqFJpyO/adQ2q93P2wokW27x3l9/CotivcZJlP4gqOcwQb/mIvgPuhCcnS/FkI8kx95LvFN/nmeR5C90/QE=);strokeColor=#50632a;points=[[1,0.5,0],[0.5,0,0],[0.5,0.5,0],[0.5,0.5,0]];labelBackgroundColor=none;rounded=1;html=1;whiteSpace=wrap;" vertex="1" parent="1">
          <mxGeometry x="57" y="461" width="1493" height="240" as="geometry" />
        </mxCell>
        <mxCell id="ziF4D768FHLYJ19X23WQ-39" value="&lt;div style=&quot;font-size: 1px&quot;&gt;&lt;font style=&quot;font-size:19.76px;font-family:Microsoft YaHei;color:#ffffff;direction:ltr;letter-spacing:0px;line-height:120%;opacity:1&quot;&gt;&lt;b&gt;数据中台&lt;br/&gt;&lt;/b&gt;&lt;/font&gt;&lt;/div&gt;" style="verticalAlign=middle;align=center;vsdxID=1419;fillColor=none;gradientColor=none;shape=stencil(nZBLDoAgDERP0z3SIyjew0SURgSD+Lu9kMZoXLhwN9O+tukAlrNpJg1SzDH4QW/URgNYgZTkjA4UkwJUgGXng+6DX1zLfmoymdXo17xh5zmRJ6Q42BWCfc2oJfdAr+Yv+AP9Cb7OJ3H/2JG1HNGz/84klThPVCc=);strokeColor=none;points=[[1,0.5,0],[0.5,0,0],[0.5,0.5,0],[0.5,0.5,0]];labelBackgroundColor=none;rounded=0;html=1;whiteSpace=wrap;" vertex="1" parent="1">
          <mxGeometry x="591" y="473" width="391" height="32" as="geometry" />
        </mxCell>
        <mxCell id="ziF4D768FHLYJ19X23WQ-40" value="&lt;div style=&quot;font-size: 1px&quot;&gt;&lt;font style=&quot;font-size:19.76px;font-family:Microsoft YaHei;color:#375623;direction:ltr;letter-spacing:0px;line-height:120%;opacity:1&quot;&gt;&lt;b&gt;数据可视化&lt;br/&gt;&lt;/b&gt;&lt;/font&gt;&lt;/div&gt;" style="verticalAlign=middle;align=center;vsdxID=1420;fillColor=#ffffff;gradientColor=none;shape=stencil(nZBLDoAgDERP0z3SIyjew0SURgSD+Lu9kMZoXLhwN9O+tukAlrNpJg1SzDH4QW/URgNYgZTkjA4UkwJUgGXng+6DX1zLfmoymdXo17xh5zmRJ6Q42BWCfc2oJfdAr+Yv+AP9Cb7OJ3H/2JG1HNGz/84klThPVCc=);strokeColor=#375623;points=[[1,0.5,0],[0.5,0,0],[0.5,0.5,0],[0.5,0.5,0]];labelBackgroundColor=none;rounded=0;html=1;whiteSpace=wrap;" vertex="1" parent="1">
          <mxGeometry x="339" y="521" width="278" height="50" as="geometry" />
        </mxCell>
        <mxCell id="ziF4D768FHLYJ19X23WQ-41" value="&lt;div style=&quot;font-size: 1px&quot;&gt;&lt;font style=&quot;font-size:22.58px;font-family:Microsoft YaHei;color:#ffffff;direction:ltr;letter-spacing:0px;line-height:120%;opacity:1&quot;&gt;&lt;b&gt;数据服务&lt;br/&gt;&lt;/b&gt;&lt;/font&gt;&lt;/div&gt;" style="verticalAlign=middle;align=center;vsdxID=1421;fillColor=none;gradientColor=none;shape=stencil(nZBLDoAgDERP0z3SIyjew0SURgSD+Lu9kMZoXLhwN9O+tukAlrNpJg1SzDH4QW/URgNYgZTkjA4UkwJUgGXng+6DX1zLfmoymdXo17xh5zmRJ6Q42BWCfc2oJfdAr+Yv+AP9Cb7OJ3H/2JG1HNGz/84klThPVCc=);strokeColor=none;points=[[1,0.5,0],[0.5,0,0],[0.5,0.5,0],[0.5,0.5,0]];labelBackgroundColor=none;rounded=0;html=1;whiteSpace=wrap;" vertex="1" parent="1">
          <mxGeometry x="97" y="521" width="233" height="50" as="geometry" />
        </mxCell>
        <mxCell id="ziF4D768FHLYJ19X23WQ-42" value="&lt;div style=&quot;font-size: 1px&quot;&gt;&lt;font style=&quot;font-size:19.76px;font-family:Microsoft YaHei;color:#375623;direction:ltr;letter-spacing:0px;line-height:120%;opacity:1&quot;&gt;&lt;b&gt;数据开放接口&lt;br/&gt;&lt;/b&gt;&lt;/font&gt;&lt;/div&gt;" style="verticalAlign=middle;align=center;vsdxID=1422;fillColor=#ffffff;gradientColor=none;shape=stencil(nZBLDoAgDERP0z3SIyjew0SURgSD+Lu9kMZoXLhwN9O+tukAlrNpJg1SzDH4QW/URgNYgZTkjA4UkwJUgGXng+6DX1zLfmoymdXo17xh5zmRJ6Q42BWCfc2oJfdAr+Yv+AP9Cb7OJ3H/2JG1HNGz/84klThPVCc=);strokeColor=#375623;points=[[1,0.5,0],[0.5,0,0],[0.5,0.5,0],[0.5,0.5,0]];labelBackgroundColor=none;rounded=0;html=1;whiteSpace=wrap;" vertex="1" parent="1">
          <mxGeometry x="629" y="521" width="278" height="50" as="geometry" />
        </mxCell>
        <mxCell id="ziF4D768FHLYJ19X23WQ-43" value="&lt;div style=&quot;font-size: 1px&quot;&gt;&lt;font style=&quot;font-size:19.76px;font-family:Microsoft YaHei;color:#375623;direction:ltr;letter-spacing:0px;line-height:120%;opacity:1&quot;&gt;&lt;b&gt;数据检索&lt;br/&gt;&lt;/b&gt;&lt;/font&gt;&lt;/div&gt;" style="verticalAlign=middle;align=center;vsdxID=1423;fillColor=#ffffff;gradientColor=none;shape=stencil(nZBLDoAgDERP0z3SIyjew0SURgSD+Lu9kMZoXLhwN9O+tukAlrNpJg1SzDH4QW/URgNYgZTkjA4UkwJUgGXng+6DX1zLfmoymdXo17xh5zmRJ6Q42BWCfc2oJfdAr+Yv+AP9Cb7OJ3H/2JG1HNGz/84klThPVCc=);strokeColor=#375623;points=[[1,0.5,0],[0.5,0,0],[0.5,0.5,0],[0.5,0.5,0]];labelBackgroundColor=none;rounded=0;html=1;whiteSpace=wrap;" vertex="1" parent="1">
          <mxGeometry x="919" y="521" width="278" height="50" as="geometry" />
        </mxCell>
        <mxCell id="ziF4D768FHLYJ19X23WQ-44" value="&lt;div style=&quot;font-size: 1px&quot;&gt;&lt;font style=&quot;font-size:19.76px;font-family:Microsoft YaHei;color:#375623;direction:ltr;letter-spacing:0px;line-height:120%;opacity:1&quot;&gt;&lt;b&gt;…...&lt;br/&gt;&lt;/b&gt;&lt;/font&gt;&lt;/div&gt;" style="verticalAlign=middle;align=center;vsdxID=1424;fillColor=#ffffff;gradientColor=none;shape=stencil(nZBLDoAgDERP0z3SIyjew0SURgSD+Lu9kMZoXLhwN9O+tukAlrNpJg1SzDH4QW/URgNYgZTkjA4UkwJUgGXng+6DX1zLfmoymdXo17xh5zmRJ6Q42BWCfc2oJfdAr+Yv+AP9Cb7OJ3H/2JG1HNGz/84klThPVCc=);strokeColor=#375623;points=[[1,0.5,0],[0.5,0,0],[0.5,0.5,0],[0.5,0.5,0]];labelBackgroundColor=none;rounded=0;html=1;whiteSpace=wrap;" vertex="1" parent="1">
          <mxGeometry x="1210" y="521" width="278" height="50" as="geometry" />
        </mxCell>
        <mxCell id="ziF4D768FHLYJ19X23WQ-45" value="&lt;div style=&quot;font-size: 1px&quot;&gt;&lt;font style=&quot;font-size:19.76px;font-family:Microsoft YaHei;color:#375623;direction:ltr;letter-spacing:0px;line-height:120%;opacity:1&quot;&gt;&lt;b&gt;数据标准管理&lt;br/&gt;&lt;/b&gt;&lt;/font&gt;&lt;/div&gt;" style="verticalAlign=middle;align=center;vsdxID=1425;fillColor=#ffffff;gradientColor=none;shape=stencil(nZBLDoAgDERP0z3SIyjew0SURgSD+Lu9kMZoXLhwN9O+tukAlrNpJg1SzDH4QW/URgNYgZTkjA4UkwJUgGXng+6DX1zLfmoymdXo17xh5zmRJ6Q42BWCfc2oJfdAr+Yv+AP9Cb7OJ3H/2JG1HNGz/84klThPVCc=);strokeColor=#375623;points=[[1,0.5,0],[0.5,0,0],[0.5,0.5,0],[0.5,0.5,0]];labelBackgroundColor=none;rounded=0;html=1;whiteSpace=wrap;" vertex="1" parent="1">
          <mxGeometry x="339" y="576" width="278" height="50" as="geometry" />
        </mxCell>
        <mxCell id="ziF4D768FHLYJ19X23WQ-46" value="&lt;div style=&quot;font-size: 1px&quot;&gt;&lt;font style=&quot;font-size:19.76px;font-family:Microsoft YaHei;color:#375623;direction:ltr;letter-spacing:0px;line-height:120%;opacity:1&quot;&gt;&lt;b&gt;数据质量监控&lt;br/&gt;&lt;/b&gt;&lt;/font&gt;&lt;/div&gt;" style="verticalAlign=middle;align=center;vsdxID=1426;fillColor=#ffffff;gradientColor=none;shape=stencil(nZBLDoAgDERP0z3SIyjew0SURgSD+Lu9kMZoXLhwN9O+tukAlrNpJg1SzDH4QW/URgNYgZTkjA4UkwJUgGXng+6DX1zLfmoymdXo17xh5zmRJ6Q42BWCfc2oJfdAr+Yv+AP9Cb7OJ3H/2JG1HNGz/84klThPVCc=);strokeColor=#375623;points=[[1,0.5,0],[0.5,0,0],[0.5,0.5,0],[0.5,0.5,0]];labelBackgroundColor=none;rounded=0;html=1;whiteSpace=wrap;" vertex="1" parent="1">
          <mxGeometry x="629" y="576" width="278" height="50" as="geometry" />
        </mxCell>
        <mxCell id="ziF4D768FHLYJ19X23WQ-47" value="&lt;div style=&quot;font-size: 1px&quot;&gt;&lt;font style=&quot;font-size:19.76px;font-family:Microsoft YaHei;color:#375623;direction:ltr;letter-spacing:0px;line-height:120%;opacity:1&quot;&gt;&lt;b&gt;数据清洗转换&lt;br/&gt;&lt;/b&gt;&lt;/font&gt;&lt;/div&gt;" style="verticalAlign=middle;align=center;vsdxID=1427;fillColor=#ffffff;gradientColor=none;shape=stencil(nZBLDoAgDERP0z3SIyjew0SURgSD+Lu9kMZoXLhwN9O+tukAlrNpJg1SzDH4QW/URgNYgZTkjA4UkwJUgGXng+6DX1zLfmoymdXo17xh5zmRJ6Q42BWCfc2oJfdAr+Yv+AP9Cb7OJ3H/2JG1HNGz/84klThPVCc=);strokeColor=#375623;points=[[1,0.5,0],[0.5,0,0],[0.5,0.5,0],[0.5,0.5,0]];labelBackgroundColor=none;rounded=0;html=1;whiteSpace=wrap;" vertex="1" parent="1">
          <mxGeometry x="919" y="576" width="278" height="50" as="geometry" />
        </mxCell>
        <mxCell id="ziF4D768FHLYJ19X23WQ-48" value="&lt;div style=&quot;font-size: 1px&quot;&gt;&lt;font style=&quot;font-size:19.76px;font-family:Microsoft YaHei;color:#375623;direction:ltr;letter-spacing:0px;line-height:120%;opacity:1&quot;&gt;&lt;b&gt;…...&lt;br/&gt;&lt;/b&gt;&lt;/font&gt;&lt;/div&gt;" style="verticalAlign=middle;align=center;vsdxID=1428;fillColor=#ffffff;gradientColor=none;shape=stencil(nZBLDoAgDERP0z3SIyjew0SURgSD+Lu9kMZoXLhwN9O+tukAlrNpJg1SzDH4QW/URgNYgZTkjA4UkwJUgGXng+6DX1zLfmoymdXo17xh5zmRJ6Q42BWCfc2oJfdAr+Yv+AP9Cb7OJ3H/2JG1HNGz/84klThPVCc=);strokeColor=#375623;points=[[1,0.5,0],[0.5,0,0],[0.5,0.5,0],[0.5,0.5,0]];labelBackgroundColor=none;rounded=0;html=1;whiteSpace=wrap;" vertex="1" parent="1">
          <mxGeometry x="1210" y="576" width="278" height="50" as="geometry" />
        </mxCell>
        <mxCell id="ziF4D768FHLYJ19X23WQ-49" value="&lt;div style=&quot;font-size: 1px&quot;&gt;&lt;font style=&quot;font-size:22.58px;font-family:Microsoft YaHei;color:#ffffff;direction:ltr;letter-spacing:0px;line-height:120%;opacity:1&quot;&gt;&lt;b&gt;数据管理&lt;br/&gt;&lt;/b&gt;&lt;/font&gt;&lt;/div&gt;" style="verticalAlign=middle;align=center;vsdxID=1429;fillColor=none;gradientColor=none;shape=stencil(nZBLDoAgDERP0z3SIyjew0SURgSD+Lu9kMZoXLhwN9O+tukAlrNpJg1SzDH4QW/URgNYgZTkjA4UkwJUgGXng+6DX1zLfmoymdXo17xh5zmRJ6Q42BWCfc2oJfdAr+Yv+AP9Cb7OJ3H/2JG1HNGz/84klThPVCc=);strokeColor=none;points=[[1,0.5,0],[0.5,0,0],[0.5,0.5,0],[0.5,0.5,0]];labelBackgroundColor=none;rounded=0;html=1;whiteSpace=wrap;" vertex="1" parent="1">
          <mxGeometry x="96" y="576" width="233" height="50" as="geometry" />
        </mxCell>
        <mxCell id="ziF4D768FHLYJ19X23WQ-50" value="&lt;div style=&quot;font-size: 1px&quot;&gt;&lt;font style=&quot;font-size:19.76px;font-family:Microsoft YaHei;color:#375623;direction:ltr;letter-spacing:0px;line-height:120%;opacity:1&quot;&gt;&lt;b&gt;数据仓库&lt;br/&gt;&lt;/b&gt;&lt;/font&gt;&lt;/div&gt;" style="verticalAlign=middle;align=center;vsdxID=1430;fillColor=#ffffff;gradientColor=none;shape=stencil(nZBLDoAgDERP0z3SIyjew0SURgSD+Lu9kMZoXLhwN9O+tukAlrNpJg1SzDH4QW/URgNYgZTkjA4UkwJUgGXng+6DX1zLfmoymdXo17xh5zmRJ6Q42BWCfc2oJfdAr+Yv+AP9Cb7OJ3H/2JG1HNGz/84klThPVCc=);strokeColor=#375623;points=[[1,0.5,0],[0.5,0,0],[0.5,0.5,0],[0.5,0.5,0]];labelBackgroundColor=none;rounded=0;html=1;whiteSpace=wrap;" vertex="1" parent="1">
          <mxGeometry x="339" y="631" width="278" height="50" as="geometry" />
        </mxCell>
        <mxCell id="ziF4D768FHLYJ19X23WQ-51" value="&lt;div style=&quot;font-size: 1px&quot;&gt;&lt;font style=&quot;font-size:19.76px;font-family:Microsoft YaHei;color:#375623;direction:ltr;letter-spacing:0px;line-height:120%;opacity:1&quot;&gt;&lt;b&gt;数据湖&lt;br/&gt;&lt;/b&gt;&lt;/font&gt;&lt;/div&gt;" style="verticalAlign=middle;align=center;vsdxID=1431;fillColor=#ffffff;gradientColor=none;shape=stencil(nZBLDoAgDERP0z3SIyjew0SURgSD+Lu9kMZoXLhwN9O+tukAlrNpJg1SzDH4QW/URgNYgZTkjA4UkwJUgGXng+6DX1zLfmoymdXo17xh5zmRJ6Q42BWCfc2oJfdAr+Yv+AP9Cb7OJ3H/2JG1HNGz/84klThPVCc=);strokeColor=#375623;points=[[1,0.5,0],[0.5,0,0],[0.5,0.5,0],[0.5,0.5,0]];labelBackgroundColor=none;rounded=0;html=1;whiteSpace=wrap;" vertex="1" parent="1">
          <mxGeometry x="629" y="631" width="278" height="50" as="geometry" />
        </mxCell>
        <mxCell id="ziF4D768FHLYJ19X23WQ-52" value="&lt;div style=&quot;font-size: 1px&quot;&gt;&lt;font style=&quot;font-size:19.76px;font-family:Microsoft YaHei;color:#375623;direction:ltr;letter-spacing:0px;line-height:120%;opacity:1&quot;&gt;&lt;b&gt;备份库&lt;br/&gt;&lt;/b&gt;&lt;/font&gt;&lt;/div&gt;" style="verticalAlign=middle;align=center;vsdxID=1432;fillColor=#ffffff;gradientColor=none;shape=stencil(nZBLDoAgDERP0z3SIyjew0SURgSD+Lu9kMZoXLhwN9O+tukAlrNpJg1SzDH4QW/URgNYgZTkjA4UkwJUgGXng+6DX1zLfmoymdXo17xh5zmRJ6Q42BWCfc2oJfdAr+Yv+AP9Cb7OJ3H/2JG1HNGz/84klThPVCc=);strokeColor=#375623;points=[[1,0.5,0],[0.5,0,0],[0.5,0.5,0],[0.5,0.5,0]];labelBackgroundColor=none;rounded=0;html=1;whiteSpace=wrap;" vertex="1" parent="1">
          <mxGeometry x="919" y="631" width="278" height="50" as="geometry" />
        </mxCell>
        <mxCell id="ziF4D768FHLYJ19X23WQ-53" value="&lt;div style=&quot;font-size: 1px&quot;&gt;&lt;font style=&quot;font-size:19.76px;font-family:Microsoft YaHei;color:#375623;direction:ltr;letter-spacing:0px;line-height:120%;opacity:1&quot;&gt;&lt;b&gt;交换库&lt;br/&gt;&lt;/b&gt;&lt;/font&gt;&lt;/div&gt;" style="verticalAlign=middle;align=center;vsdxID=1433;fillColor=#ffffff;gradientColor=none;shape=stencil(nZBLDoAgDERP0z3SIyjew0SURgSD+Lu9kMZoXLhwN9O+tukAlrNpJg1SzDH4QW/URgNYgZTkjA4UkwJUgGXng+6DX1zLfmoymdXo17xh5zmRJ6Q42BWCfc2oJfdAr+Yv+AP9Cb7OJ3H/2JG1HNGz/84klThPVCc=);strokeColor=#375623;points=[[1,0.5,0],[0.5,0,0],[0.5,0.5,0],[0.5,0.5,0]];labelBackgroundColor=none;rounded=0;html=1;whiteSpace=wrap;" vertex="1" parent="1">
          <mxGeometry x="1210" y="631" width="278" height="50" as="geometry" />
        </mxCell>
        <mxCell id="ziF4D768FHLYJ19X23WQ-54" value="&lt;div style=&quot;font-size: 1px&quot;&gt;&lt;font style=&quot;font-size:22.58px;font-family:Microsoft YaHei;color:#ffffff;direction:ltr;letter-spacing:0px;line-height:120%;opacity:1&quot;&gt;&lt;b&gt;数据存储&lt;br/&gt;&lt;/b&gt;&lt;/font&gt;&lt;/div&gt;" style="verticalAlign=middle;align=center;vsdxID=1434;fillColor=none;gradientColor=none;shape=stencil(nZBLDoAgDERP0z3SIyjew0SURgSD+Lu9kMZoXLhwN9O+tukAlrNpJg1SzDH4QW/URgNYgZTkjA4UkwJUgGXng+6DX1zLfmoymdXo17xh5zmRJ6Q42BWCfc2oJfdAr+Yv+AP9Cb7OJ3H/2JG1HNGz/84klThPVCc=);strokeColor=none;points=[[1,0.5,0],[0.5,0,0],[0.5,0.5,0],[0.5,0.5,0]];labelBackgroundColor=none;rounded=0;html=1;whiteSpace=wrap;" vertex="1" parent="1">
          <mxGeometry x="97" y="631" width="233" height="50" as="geometry" />
        </mxCell>
        <mxCell id="ziF4D768FHLYJ19X23WQ-55" value="&lt;div style=&quot;font-size: 1px&quot;&gt;&lt;font style=&quot;font-size:19.76px;font-family:Microsoft YaHei;color:#ffffff;direction:ltr;letter-spacing:0px;line-height:120%;opacity:1&quot;&gt;&lt;b&gt;业务中台&lt;br/&gt;&lt;/b&gt;&lt;/font&gt;&lt;/div&gt;" style="verticalAlign=middle;align=center;vsdxID=1435;fillColor=none;gradientColor=none;shape=stencil(nZBLDoAgDERP0z3SIyjew0SURgSD+Lu9kMZoXLhwN9O+tukAlrNpJg1SzDH4QW/URgNYgZTkjA4UkwJUgGXng+6DX1zLfmoymdXo17xh5zmRJ6Q42BWCfc2oJfdAr+Yv+AP9Cb7OJ3H/2JG1HNGz/84klThPVCc=);strokeColor=none;points=[[1,0.5,0],[0.5,0,0],[0.5,0.5,0],[0.5,0.5,0]];labelBackgroundColor=none;rounded=0;html=1;whiteSpace=wrap;" vertex="1" parent="1">
          <mxGeometry x="1678" y="473" width="391" height="32" as="geometry" />
        </mxCell>
        <mxCell id="ziF4D768FHLYJ19X23WQ-56" value="&lt;div style=&quot;font-size: 1px&quot;&gt;&lt;font style=&quot;font-size:19.76px;font-family:Microsoft YaHei;color:#375623;direction:ltr;letter-spacing:0px;line-height:120%;opacity:1&quot;&gt;&lt;b&gt;数据集成&lt;br/&gt;&lt;/b&gt;&lt;/font&gt;&lt;/div&gt;" style="verticalAlign=middle;align=center;vsdxID=1436;fillColor=#ffffff;gradientColor=none;shape=stencil(nZBLDoAgDERP0z3SIyjew0SURgSD+Lu9kMZoXLhwN9O+tukAlrNpJg1SzDH4QW/URgNYgZTkjA4UkwJUgGXng+6DX1zLfmoymdXo17xh5zmRJ6Q42BWCfc2oJfdAr+Yv+AP9Cb7OJ3H/2JG1HNGz/84klThPVCc=);strokeColor=#7f6000;points=[[1,0.5,0],[0.5,0,0],[0.5,0.5,0],[0.5,0.5,0]];labelBackgroundColor=none;rounded=0;html=1;whiteSpace=wrap;" vertex="1" parent="1">
          <mxGeometry x="339" y="721" width="529" height="50" as="geometry" />
        </mxCell>
        <mxCell id="ziF4D768FHLYJ19X23WQ-57" value="&lt;div style=&quot;font-size: 1px&quot;&gt;&lt;font style=&quot;font-size:22.58px;font-family:Microsoft YaHei;color:#ffffff;direction:ltr;letter-spacing:0px;line-height:120%;opacity:1&quot;&gt;&lt;b&gt;集成交换&lt;br/&gt;&lt;/b&gt;&lt;/font&gt;&lt;/div&gt;" style="verticalAlign=middle;align=center;vsdxID=1437;fillColor=none;gradientColor=none;shape=stencil(nZBLDoAgDERP0z3SIyjew0SURgSD+Lu9kMZoXLhwN9O+tukAlrNpJg1SzDH4QW/URgNYgZTkjA4UkwJUgGXng+6DX1zLfmoymdXo17xh5zmRJ6Q42BWCfc2oJfdAr+Yv+AP9Cb7OJ3H/2JG1HNGz/84klThPVCc=);strokeColor=none;points=[[1,0.5,0],[0.5,0,0],[0.5,0.5,0],[0.5,0.5,0]];labelBackgroundColor=none;rounded=0;html=1;whiteSpace=wrap;" vertex="1" parent="1">
          <mxGeometry x="97" y="721" width="233" height="50" as="geometry" />
        </mxCell>
        <mxCell id="ziF4D768FHLYJ19X23WQ-58" value="&lt;div style=&quot;font-size: 1px&quot;&gt;&lt;font style=&quot;font-size:19.76px;font-family:Microsoft YaHei;color:#375623;direction:ltr;letter-spacing:0px;line-height:120%;opacity:1&quot;&gt;&lt;b&gt;服务集成&lt;br/&gt;&lt;/b&gt;&lt;/font&gt;&lt;/div&gt;" style="verticalAlign=middle;align=center;vsdxID=1438;fillColor=#ffffff;gradientColor=none;shape=stencil(nZBLDoAgDERP0z3SIyjew0SURgSD+Lu9kMZoXLhwN9O+tukAlrNpJg1SzDH4QW/URgNYgZTkjA4UkwJUgGXng+6DX1zLfmoymdXo17xh5zmRJ6Q42BWCfc2oJfdAr+Yv+AP9Cb7OJ3H/2JG1HNGz/84klThPVCc=);strokeColor=#7f6000;points=[[1,0.5,0],[0.5,0,0],[0.5,0.5,0],[0.5,0.5,0]];labelBackgroundColor=none;rounded=0;html=1;whiteSpace=wrap;" vertex="1" parent="1">
          <mxGeometry x="956" y="721" width="529" height="50" as="geometry" />
        </mxCell>
        <mxCell id="ziF4D768FHLYJ19X23WQ-59" value="&lt;div style=&quot;font-size: 1px&quot;&gt;&lt;font style=&quot;font-size:19.76px;font-family:Microsoft YaHei;color:#375623;direction:ltr;letter-spacing:0px;line-height:120%;opacity:1&quot;&gt;&lt;b&gt;界面集成&lt;br/&gt;&lt;/b&gt;&lt;/font&gt;&lt;/div&gt;" style="verticalAlign=middle;align=center;vsdxID=1439;fillColor=#ffffff;gradientColor=none;shape=stencil(nZBLDoAgDERP0z3SIyjew0SURgSD+Lu9kMZoXLhwN9O+tukAlrNpJg1SzDH4QW/URgNYgZTkjA4UkwJUgGXng+6DX1zLfmoymdXo17xh5zmRJ6Q42BWCfc2oJfdAr+Yv+AP9Cb7OJ3H/2JG1HNGz/84klThPVCc=);strokeColor=#7f6000;points=[[1,0.5,0],[0.5,0,0],[0.5,0.5,0],[0.5,0.5,0]];labelBackgroundColor=none;rounded=0;html=1;whiteSpace=wrap;" vertex="1" parent="1">
          <mxGeometry x="1573" y="721" width="529" height="50" as="geometry" />
        </mxCell>
        <mxCell id="ziF4D768FHLYJ19X23WQ-60" style="vsdxID=1440;fillColor=none;gradientColor=none;strokeColor=none;points=[];labelBackgroundColor=none;rounded=0;html=1;whiteSpace=wrap;" vertex="1" parent="1">
          <mxGeometry x="1645" y="521" width="457" height="160" as="geometry" />
        </mxCell>
        <mxCell id="ziF4D768FHLYJ19X23WQ-61" value="&lt;div style=&quot;font-size: 1px&quot;&gt;&lt;font style=&quot;font-size:19.76px;font-family:Microsoft YaHei;color:#375623;direction:ltr;letter-spacing:0px;line-height:120%;opacity:1&quot;&gt;&lt;b&gt;支付中心&lt;br/&gt;&lt;/b&gt;&lt;/font&gt;&lt;/div&gt;" style="verticalAlign=middle;align=center;vsdxID=1441;fillColor=#ffffff;gradientColor=none;shape=stencil(nZBLDoAgDERP0z3SIyjew0SURgSD+Lu9kMZoXLhwN9O+tukAlrNpJg1SzDH4QW/URgNYgZTkjA4UkwJUgGXng+6DX1zLfmoymdXo17xh5zmRJ6Q42BWCfc2oJfdAr+Yv+AP9Cb7OJ3H/2JG1HNGz/84klThPVCc=);strokeColor=#375623;points=[[1,0.5,0],[0.5,0,0],[0.5,0.5,0],[0.5,0.5,0]];labelBackgroundColor=none;rounded=0;html=1;whiteSpace=wrap;" vertex="1" parent="ziF4D768FHLYJ19X23WQ-60">
          <mxGeometry width="223" height="50" as="geometry" />
        </mxCell>
        <mxCell id="ziF4D768FHLYJ19X23WQ-62" value="&lt;div style=&quot;font-size: 1px&quot;&gt;&lt;font style=&quot;font-size:19.76px;font-family:Microsoft YaHei;color:#375623;direction:ltr;letter-spacing:0px;line-height:120%;opacity:1&quot;&gt;&lt;b&gt;医嘱闭环&lt;br/&gt;&lt;/b&gt;&lt;/font&gt;&lt;/div&gt;" style="verticalAlign=middle;align=center;vsdxID=1442;fillColor=#ffffff;gradientColor=none;shape=stencil(nZBLDoAgDERP0z3SIyjew0SURgSD+Lu9kMZoXLhwN9O+tukAlrNpJg1SzDH4QW/URgNYgZTkjA4UkwJUgGXng+6DX1zLfmoymdXo17xh5zmRJ6Q42BWCfc2oJfdAr+Yv+AP9Cb7OJ3H/2JG1HNGz/84klThPVCc=);strokeColor=#375623;points=[[1,0.5,0],[0.5,0,0],[0.5,0.5,0],[0.5,0.5,0]];labelBackgroundColor=none;rounded=0;html=1;whiteSpace=wrap;" vertex="1" parent="ziF4D768FHLYJ19X23WQ-60">
          <mxGeometry x="233" width="223" height="50" as="geometry" />
        </mxCell>
        <mxCell id="ziF4D768FHLYJ19X23WQ-63" value="&lt;div style=&quot;font-size: 1px&quot;&gt;&lt;font style=&quot;font-size:19.76px;font-family:Microsoft YaHei;color:#375623;direction:ltr;letter-spacing:0px;line-height:120%;opacity:1&quot;&gt;&lt;b&gt;患者服务&lt;br/&gt;&lt;/b&gt;&lt;/font&gt;&lt;/div&gt;" style="verticalAlign=middle;align=center;vsdxID=1443;fillColor=#ffffff;gradientColor=none;shape=stencil(nZBLDoAgDERP0z3SIyjew0SURgSD+Lu9kMZoXLhwN9O+tukAlrNpJg1SzDH4QW/URgNYgZTkjA4UkwJUgGXng+6DX1zLfmoymdXo17xh5zmRJ6Q42BWCfc2oJfdAr+Yv+AP9Cb7OJ3H/2JG1HNGz/84klThPVCc=);strokeColor=#375623;points=[[1,0.5,0],[0.5,0,0],[0.5,0.5,0],[0.5,0.5,0]];labelBackgroundColor=none;rounded=0;html=1;whiteSpace=wrap;" vertex="1" parent="ziF4D768FHLYJ19X23WQ-60">
          <mxGeometry y="55" width="223" height="50" as="geometry" />
        </mxCell>
        <mxCell id="ziF4D768FHLYJ19X23WQ-64" value="&lt;div style=&quot;font-size: 1px&quot;&gt;&lt;font style=&quot;font-size:19.76px;font-family:Microsoft YaHei;color:#375623;direction:ltr;letter-spacing:0px;line-height:120%;opacity:1&quot;&gt;&lt;b&gt;智慧文书&lt;br/&gt;&lt;/b&gt;&lt;/font&gt;&lt;/div&gt;" style="verticalAlign=middle;align=center;vsdxID=1444;fillColor=#ffffff;gradientColor=none;shape=stencil(nZBLDoAgDERP0z3SIyjew0SURgSD+Lu9kMZoXLhwN9O+tukAlrNpJg1SzDH4QW/URgNYgZTkjA4UkwJUgGXng+6DX1zLfmoymdXo17xh5zmRJ6Q42BWCfc2oJfdAr+Yv+AP9Cb7OJ3H/2JG1HNGz/84klThPVCc=);strokeColor=#375623;points=[[1,0.5,0],[0.5,0,0],[0.5,0.5,0],[0.5,0.5,0]];labelBackgroundColor=none;rounded=0;html=1;whiteSpace=wrap;" vertex="1" parent="ziF4D768FHLYJ19X23WQ-60">
          <mxGeometry x="233" y="55" width="223" height="50" as="geometry" />
        </mxCell>
        <mxCell id="ziF4D768FHLYJ19X23WQ-65" value="&lt;div style=&quot;font-size: 1px&quot;&gt;&lt;font style=&quot;font-size:19.76px;font-family:Microsoft YaHei;color:#375623;direction:ltr;letter-spacing:0px;line-height:120%;opacity:1&quot;&gt;&lt;b&gt;EMPI&lt;br/&gt;&lt;/b&gt;&lt;/font&gt;&lt;/div&gt;" style="verticalAlign=middle;align=center;vsdxID=1445;fillColor=#ffffff;gradientColor=none;shape=stencil(nZBLDoAgDERP0z3SIyjew0SURgSD+Lu9kMZoXLhwN9O+tukAlrNpJg1SzDH4QW/URgNYgZTkjA4UkwJUgGXng+6DX1zLfmoymdXo17xh5zmRJ6Q42BWCfc2oJfdAr+Yv+AP9Cb7OJ3H/2JG1HNGz/84klThPVCc=);strokeColor=#375623;points=[[1,0.5,0],[0.5,0,0],[0.5,0.5,0],[0.5,0.5,0]];labelBackgroundColor=none;rounded=0;html=1;whiteSpace=wrap;" vertex="1" parent="ziF4D768FHLYJ19X23WQ-60">
          <mxGeometry y="110" width="223" height="50" as="geometry" />
        </mxCell>
        <mxCell id="ziF4D768FHLYJ19X23WQ-66" value="&lt;div style=&quot;font-size: 1px&quot;&gt;&lt;font style=&quot;font-size:19.76px;font-family:Microsoft YaHei;color:#375623;direction:ltr;letter-spacing:0px;line-height:120%;opacity:1&quot;&gt;&lt;b&gt;费用结算&lt;br/&gt;&lt;/b&gt;&lt;/font&gt;&lt;/div&gt;" style="verticalAlign=middle;align=center;vsdxID=1446;fillColor=#ffffff;gradientColor=none;shape=stencil(nZBLDoAgDERP0z3SIyjew0SURgSD+Lu9kMZoXLhwN9O+tukAlrNpJg1SzDH4QW/URgNYgZTkjA4UkwJUgGXng+6DX1zLfmoymdXo17xh5zmRJ6Q42BWCfc2oJfdAr+Yv+AP9Cb7OJ3H/2JG1HNGz/84klThPVCc=);strokeColor=#375623;points=[[1,0.5,0],[0.5,0,0],[0.5,0.5,0],[0.5,0.5,0]];labelBackgroundColor=none;rounded=0;html=1;whiteSpace=wrap;" vertex="1" parent="ziF4D768FHLYJ19X23WQ-60">
          <mxGeometry x="233" y="110" width="223" height="50" as="geometry" />
        </mxCell>
        <mxCell id="ziF4D768FHLYJ19X23WQ-71" value="&lt;div style=&quot;font-size: 1px&quot;&gt;&lt;font style=&quot;font-size:16.93px;font-family:Microsoft YaHei;color:#7f6000;direction:ltr;letter-spacing:0px;line-height:120%;opacity:1&quot;&gt;&lt;b&gt;药品研发机构&lt;br/&gt;&lt;/b&gt;&lt;/font&gt;&lt;/div&gt;" style="verticalAlign=middle;align=center;vsdxID=1232;fillColor=#ffffff;gradientColor=none;shape=stencil(nZBLDoAgDERP0z3SIyjew0SURgSD+Lu9kMZoXLhwN9O+tukAlrNpJg1SzDH4QW/URgNYgZTkjA4UkwJUgGXng+6DX1zLfmoymdXo17xh5zmRJ6Q42BWCfc2oJfdAr+Yv+AP9Cb7OJ3H/2JG1HNGz/84klThPVCc=);strokeColor=#fbe5d5;points=[[1,0.5,0],[0.5,0,0],[0.5,0.5,0],[0.5,0.5,0]];labelBackgroundColor=none;rounded=0;html=1;whiteSpace=wrap;" vertex="1" parent="1">
          <mxGeometry x="1919" y="148" width="211" height="46" as="geometry" />
        </mxCell>
        <mxCell id="ziF4D768FHLYJ19X23WQ-72" value="&lt;div style=&quot;font-size: 1px&quot;&gt;&lt;font style=&quot;font-size:16.93px;font-family:Microsoft YaHei;color:#7f6000;direction:ltr;letter-spacing:0px;line-height:120%;opacity:1&quot;&gt;&lt;b&gt;保险公司&lt;br/&gt;&lt;/b&gt;&lt;/font&gt;&lt;/div&gt;" style="verticalAlign=middle;align=center;vsdxID=1233;fillColor=#ffffff;gradientColor=none;shape=stencil(nZBLDoAgDERP0z3SIyjew0SURgSD+Lu9kMZoXLhwN9O+tukAlrNpJg1SzDH4QW/URgNYgZTkjA4UkwJUgGXng+6DX1zLfmoymdXo17xh5zmRJ6Q42BWCfc2oJfdAr+Yv+AP9Cb7OJ3H/2JG1HNGz/84klThPVCc=);strokeColor=#fbe5d5;points=[[1,0.5,0],[0.5,0,0],[0.5,0.5,0],[0.5,0.5,0]];labelBackgroundColor=none;rounded=0;html=1;whiteSpace=wrap;" vertex="1" parent="1">
          <mxGeometry x="1919" y="202" width="211" height="46" as="geometry" />
        </mxCell>
        <mxCell id="ziF4D768FHLYJ19X23WQ-73" value="&lt;div style=&quot;font-size: 1px&quot;&gt;&lt;font style=&quot;font-size:16.93px;font-family:Microsoft YaHei;color:#7f6000;direction:ltr;letter-spacing:0px;line-height:120%;opacity:1&quot;&gt;&lt;b&gt;公安&lt;br/&gt;&lt;/b&gt;&lt;/font&gt;&lt;/div&gt;" style="verticalAlign=middle;align=center;vsdxID=1237;fillColor=#ffffff;gradientColor=none;shape=stencil(nZBLDoAgDERP0z3SIyjew0SURgSD+Lu9kMZoXLhwN9O+tukAlrNpJg1SzDH4QW/URgNYgZTkjA4UkwJUgGXng+6DX1zLfmoymdXo17xh5zmRJ6Q42BWCfc2oJfdAr+Yv+AP9Cb7OJ3H/2JG1HNGz/84klThPVCc=);strokeColor=#fbe5d5;points=[[1,0.5,0],[0.5,0,0],[0.5,0.5,0],[0.5,0.5,0]];labelBackgroundColor=none;rounded=0;html=1;whiteSpace=wrap;" vertex="1" parent="1">
          <mxGeometry x="1919" y="255" width="211" height="46" as="geometry" />
        </mxCell>
        <mxCell id="ziF4D768FHLYJ19X23WQ-74" value="&lt;div style=&quot;font-size: 1px&quot;&gt;&lt;font style=&quot;font-size:16.93px;font-family:Microsoft YaHei;color:#7f6000;direction:ltr;letter-spacing:0px;line-height:120%;opacity:1&quot;&gt;&lt;b&gt;民政&lt;br/&gt;&lt;/b&gt;&lt;/font&gt;&lt;/div&gt;" style="verticalAlign=middle;align=center;vsdxID=1238;fillColor=#ffffff;gradientColor=none;shape=stencil(nZBLDoAgDERP0z3SIyjew0SURgSD+Lu9kMZoXLhwN9O+tukAlrNpJg1SzDH4QW/URgNYgZTkjA4UkwJUgGXng+6DX1zLfmoymdXo17xh5zmRJ6Q42BWCfc2oJfdAr+Yv+AP9Cb7OJ3H/2JG1HNGz/84klThPVCc=);strokeColor=#fbe5d5;points=[[1,0.5,0],[0.5,0,0],[0.5,0.5,0],[0.5,0.5,0]];labelBackgroundColor=none;rounded=0;html=1;whiteSpace=wrap;" vertex="1" parent="1">
          <mxGeometry x="1919" y="308" width="211" height="46" as="geometry" />
        </mxCell>
        <mxCell id="ziF4D768FHLYJ19X23WQ-75" value="&lt;div style=&quot;font-size: 1px&quot;&gt;&lt;font style=&quot;font-size:16.93px;font-family:Microsoft YaHei;color:#7f6000;direction:ltr;letter-spacing:0px;line-height:120%;opacity:1&quot;&gt;&lt;b&gt;…...&lt;br/&gt;&lt;/b&gt;&lt;/font&gt;&lt;/div&gt;" style="verticalAlign=middle;align=center;vsdxID=1239;fillColor=#ffffff;gradientColor=none;shape=stencil(nZBLDoAgDERP0z3SIyjew0SURgSD+Lu9kMZoXLhwN9O+tukAlrNpJg1SzDH4QW/URgNYgZTkjA4UkwJUgGXng+6DX1zLfmoymdXo17xh5zmRJ6Q42BWCfc2oJfdAr+Yv+AP9Cb7OJ3H/2JG1HNGz/84klThPVCc=);strokeColor=#fbe5d5;points=[[1,0.5,0],[0.5,0,0],[0.5,0.5,0],[0.5,0.5,0]];labelBackgroundColor=none;rounded=0;html=1;whiteSpace=wrap;" vertex="1" parent="1">
          <mxGeometry x="1919" y="362" width="211" height="46" as="geometry" />
        </mxCell>
        <mxCell id="ziF4D768FHLYJ19X23WQ-76" value="&lt;div style=&quot;font-size: 1px&quot;&gt;&lt;font style=&quot;font-size:19.76px;font-family:Microsoft YaHei;color:#ffffff;direction:ltr;letter-spacing:0px;line-height:120%;opacity:1&quot;&gt;&lt;b&gt;临床系统&lt;br/&gt;&lt;/b&gt;&lt;/font&gt;&lt;/div&gt;" style="verticalAlign=middle;align=center;vsdxID=4359;fillColor=#4672c4;gradientColor=none;shape=stencil(nZBLDoAgDERP0z3SIyjew0SURgSD+Lu9kMZoXLhwN9O+tukAlrNpJg1SzDH4QW/URgNYgZTkjA4UkwJUgGXng+6DX1zLfmoymdXo17xh5zmRJ6Q42BWCfc2oJfdAr+Yv+AP9Cb7OJ3H/2JG1HNGz/84klThPVCc=);strokeColor=#4672c4;points=[[1,0.5,0],[0.5,0,0],[0.5,0.5,0],[0.5,0.5,0]];labelBackgroundColor=none;rounded=0;html=1;whiteSpace=wrap;" vertex="1" parent="1">
          <mxGeometry x="1724" y="810" width="227" height="70" as="geometry" />
        </mxCell>
        <mxCell id="ziF4D768FHLYJ19X23WQ-99" value="&lt;div style=&quot;font-size: 1px&quot;&gt;&lt;font style=&quot;font-size:19.76px;font-family:Microsoft YaHei;color:#ffffff;direction:ltr;letter-spacing:0px;line-height:120%;opacity:1&quot;&gt;&lt;b&gt;EMR系统&lt;br/&gt;&lt;/b&gt;&lt;/font&gt;&lt;/div&gt;" style="verticalAlign=middle;align=center;vsdxID=1382;fillColor=#4672c4;gradientColor=none;shape=stencil(nZBLDoAgDERP0z3SIyjew0SURgSD+Lu9kMZoXLhwN9O+tukAlrNpJg1SzDH4QW/URgNYgZTkjA4UkwJUgGXng+6DX1zLfmoymdXo17xh5zmRJ6Q42BWCfc2oJfdAr+Yv+AP9Cb7OJ3H/2JG1HNGz/84klThPVCc=);strokeColor=#4672c4;points=[[1,0.5,0],[0.5,0,0],[0.5,0.5,0],[0.5,0.5,0]];labelBackgroundColor=none;rounded=0;html=1;whiteSpace=wrap;" vertex="1" parent="1">
          <mxGeometry x="385" y="810" width="280" height="70" as="geometry" />
        </mxCell>
        <mxCell id="ziF4D768FHLYJ19X23WQ-120" style="vsdxID=168;fillColor=none;gradientColor=none;image;aspect=fixed;strokeColor=none;points=[];labelBackgroundColor=none;rounded=0;html=1;whiteSpace=wrap;;image=data:image/jpg,/9j/4AAQSkZJRgABAQAAAQABAAD/2wBDAAMCAgICAgMCAgIDAwMDBAYEBAQEBAgGBgUGCQgKCgkICQkKDA8MCgsOCwkJDRENDg8QEBEQCgwSExIQEw8QEBD/2wBDAQMDAwQDBAgEBAgQCwkLEBAQEBAQEBAQEBAQEBAQEBAQEBAQEBAQEBAQEBAQEBAQEBAQEBAQEBAQEBAQEBAQEBD/wAARCAAvAFMDASIAAhEBAxEB/8QAHAAAAQUBAQEAAAAAAAAAAAAABgADBAUHAQIJ/8QAMRAAAgEDAwMCBAUEAwAAAAAAAQIDBAURAAYSITFBE1EHFDJhFyIjYoEVFlJxJHKx/8QAGQEAAgMBAAAAAAAAAAAAAAAAAwQAAgUB/8QALBEAAQMBBQcEAwEAAAAAAAAAAQIDEQAEEiExcRNBUWGBkdEFI6HBIkLw4f/aAAwDAQACEQMRAD8A+qelqPXV9FbKdqu4VcVPCvd5GCjPt17n7aFbpue3bhuFn27ZrxE0N29dqloJMTLFGgbjj6k5ZwSQDorbKnMQMOOmNCcdS3mceGuFEcV/sU9QKOC9UEk7NwES1KFy3tgHOdVdddLzdrnU2TbU0FMKPitZWzJz4MwyFjXszAd89B21Kl2btSanNK+3qAIV45WBVfH/AGGGz9851GjoKTbdMLDtSiipWlZp2JJZUJPV2ySSToqNlMoknnEa/wCRQnFOJH55cpk8h5mmfw8sdV+pfZ6+7zeJKuqf8nuFCkADPjrpf2SbZ+ptS9VlsK9VpnkM1KffKNk5Pvnp41PtRv0M0jXevpqiIqOCxRcCD9zq2SVZM48ai3nkmCqR8dj4rjbbTgm7B+e480NfiBZLf/xNySNbbhH0lhMMjrn/ACVlUgqe41bWfcVkv8bSWi4xVHH6lGVdfuVOGA++NPV4eeEpTSoso6qXzx/nGhWutk1TdFKzLbLpEhkjro1ViUHQ5B+tf2nXUoadGEg6yO0THU9aqt11o44jTHvMfAo20tZxHfd32qb5ye/R3mGI/npfk0hMi+SrKfq9geh0U2HfW1dyKv8ATLxA0pbgYXbhIH8rxbBJHnGdVcsjjYvDEcRPirM21p43Zg8DFX2lpaWlqboUsEFHu923Tc6GnnjE0kdtDrnhCrY5EHpyLAnqOmOmiGO12yKra4RW6lSqfPKdYVEhz3y2M6DqKvPw/kezXRljt3qSPQzuwVDGTy9NmPZwSe/cHpqbN8Sdv+pB6FQs8Ex4M8bA8D5OR0I086y6tUtyU7tP7PnSTbrSE+4QFb9f7LlRLJVspPpwFwPPIDOq1Ek9aaplXjJK/bOcKOw08t1tk8Kyw19OUYZB9QDprjOkih43DKeoIOQdBSCnCKss3sZpszFe51z5nHZtNS+f9ajuSOx0QJBpYuEVM+Y/dpmopbbWTR1FZHK7xoY8CTCspOcEedQzOV76SVHqTx06HMkpwi++rhBGIqm2nA16ue2bPU2+Wqt0LQPCpLIkhAYDvn+POh6pprI1LHStQQqiJ+jIEAkjz1yrdwc9c6Iai9UdHRzUPzSmab8jEqeMfgg5847aDdx1VNTwNLFOgjhHflnA8aYs4Wo3STyqO3EpvACd9Rpd8b+s8jW2jWS4QQEiKoljDu6nqOTHGSAcE/bS1SRU/wAQ7jGtbZdrvPRSjMMshKM47Zweo65/jS1pbFj9gidR5rP2z36lcaHxW+VdFR18Jp66khqYiQeEsYdcjscHprFPiLYBtTc6V8UMNPZrkcwpDHxjp5gMyFsDChuhz28a3HTc9PBVQvT1UEc0Ugw6SKGVh7EHodYNktarKucxvFbtrsqbSiMjxrMtsxU8yo7RRuGAIJUHOr6K7Q25/k0gkkpyx9MxgEx/tx7Z07L8KNgyuZBYEjYsWPpzSKCT9g2s13FeazaF5nst5cqqyYpZlGRLEfoyFyQcdDkeO+n2wi2rIbJngfrE0g5fsaAXAI4j7wFaLUX+lYOtLHJKy9MkcUDY7EntqKaiqYJMldCWcZkjYEoOnTiR11nFdvGCjRRVyMBKSirxJ5H21bW7bO9ht5L/AG3056WTlKKKeVVljjHYq4JXGAehOdFNkDSQVGJynfQBaA4ohIvRnG6iesJXlWVc/rLEMpHT5UqcfV17/wCtUtVummgpTXxVUbcU6yM/FVPv+06HrVdtzX+rFvs1lllqSpcLNPFGuB368j/5o62n8LV+dXcG8YKaaq4cYqAKGipznPIkdHYjocjGuuJbsw989Bn2+6jd+0H2E9Tu6/VBFRVbnvkPztNtG+TK5PpTRw80kTwytkdDq+2D8N9wVtyhvm8KX5KCmdZoKT1A7yuPpMgHQAf4++tfRFjUIihVUYAAwAPbXrSK/UlFJQ2kJnWafR6ekKCnFExpFLS0tLWbWjX/2Q==" vertex="1" parent="1">
          <mxGeometry x="1351" y="955" width="24" height="18" as="geometry" />
        </mxCell>
        <mxCell id="ziF4D768FHLYJ19X23WQ-122" style="vsdxID=176;fillColor=none;gradientColor=none;image;aspect=fixed;strokeColor=none;points=[];labelBackgroundColor=none;rounded=0;html=1;whiteSpace=wrap;;image=data:image/jpg,/9j/4AAQSkZJRgABAQAAAQABAAD/2wBDAAMCAgICAgMCAgIDAwMDBAYEBAQEBAgGBgUGCQgKCgkICQkKDA8MCgsOCwkJDRENDg8QEBEQCgwSExIQEw8QEBD/2wBDAQMDAwQDBAgEBAgQCwkLEBAQEBAQEBAQEBAQEBAQEBAQEBAQEBAQEBAQEBAQEBAQEBAQEBAQEBAQEBAQEBAQEBD/wAARCAAvAFMDASIAAhEBAxEB/8QAHAAAAQUBAQEAAAAAAAAAAAAABgADBAUHAQIJ/8QAMRAAAgEDAwMCBAUEAwAAAAAAAQIDBAURAAYSITFBE1EHFDJhFyIjYoEVFlJxJHKx/8QAGQEAAgMBAAAAAAAAAAAAAAAAAwQAAgUB/8QALBEAAQMBBQcEAwEAAAAAAAAAAQIDEQAEEiExcRNBUWGBkdEFI6HBIkLw4f/aAAwDAQACEQMRAD8A+qelqPXV9FbKdqu4VcVPCvd5GCjPt17n7aFbpue3bhuFn27ZrxE0N29dqloJMTLFGgbjj6k5ZwSQDorbKnMQMOOmNCcdS3mceGuFEcV/sU9QKOC9UEk7NwES1KFy3tgHOdVdddLzdrnU2TbU0FMKPitZWzJz4MwyFjXszAd89B21Kl2btSanNK+3qAIV45WBVfH/AGGGz9851GjoKTbdMLDtSiipWlZp2JJZUJPV2ySSToqNlMoknnEa/wCRQnFOJH55cpk8h5mmfw8sdV+pfZ6+7zeJKuqf8nuFCkADPjrpf2SbZ+ptS9VlsK9VpnkM1KffKNk5Pvnp41PtRv0M0jXevpqiIqOCxRcCD9zq2SVZM48ai3nkmCqR8dj4rjbbTgm7B+e480NfiBZLf/xNySNbbhH0lhMMjrn/ACVlUgqe41bWfcVkv8bSWi4xVHH6lGVdfuVOGA++NPV4eeEpTSoso6qXzx/nGhWutk1TdFKzLbLpEhkjro1ViUHQ5B+tf2nXUoadGEg6yO0THU9aqt11o44jTHvMfAo20tZxHfd32qb5ye/R3mGI/npfk0hMi+SrKfq9geh0U2HfW1dyKv8ATLxA0pbgYXbhIH8rxbBJHnGdVcsjjYvDEcRPirM21p43Zg8DFX2lpaWlqboUsEFHu923Tc6GnnjE0kdtDrnhCrY5EHpyLAnqOmOmiGO12yKra4RW6lSqfPKdYVEhz3y2M6DqKvPw/kezXRljt3qSPQzuwVDGTy9NmPZwSe/cHpqbN8Sdv+pB6FQs8Ex4M8bA8D5OR0I086y6tUtyU7tP7PnSTbrSE+4QFb9f7LlRLJVspPpwFwPPIDOq1Ek9aaplXjJK/bOcKOw08t1tk8Kyw19OUYZB9QDprjOkih43DKeoIOQdBSCnCKss3sZpszFe51z5nHZtNS+f9ajuSOx0QJBpYuEVM+Y/dpmopbbWTR1FZHK7xoY8CTCspOcEedQzOV76SVHqTx06HMkpwi++rhBGIqm2nA16ue2bPU2+Wqt0LQPCpLIkhAYDvn+POh6pprI1LHStQQqiJ+jIEAkjz1yrdwc9c6Iai9UdHRzUPzSmab8jEqeMfgg5847aDdx1VNTwNLFOgjhHflnA8aYs4Wo3STyqO3EpvACd9Rpd8b+s8jW2jWS4QQEiKoljDu6nqOTHGSAcE/bS1SRU/wAQ7jGtbZdrvPRSjMMshKM47Zweo65/jS1pbFj9gidR5rP2z36lcaHxW+VdFR18Jp66khqYiQeEsYdcjscHprFPiLYBtTc6V8UMNPZrkcwpDHxjp5gMyFsDChuhz28a3HTc9PBVQvT1UEc0Ugw6SKGVh7EHodYNktarKucxvFbtrsqbSiMjxrMtsxU8yo7RRuGAIJUHOr6K7Q25/k0gkkpyx9MxgEx/tx7Z07L8KNgyuZBYEjYsWPpzSKCT9g2s13FeazaF5nst5cqqyYpZlGRLEfoyFyQcdDkeO+n2wi2rIbJngfrE0g5fsaAXAI4j7wFaLUX+lYOtLHJKy9MkcUDY7EntqKaiqYJMldCWcZkjYEoOnTiR11nFdvGCjRRVyMBKSirxJ5H21bW7bO9ht5L/AG3056WTlKKKeVVljjHYq4JXGAehOdFNkDSQVGJynfQBaA4ohIvRnG6iesJXlWVc/rLEMpHT5UqcfV17/wCtUtVummgpTXxVUbcU6yM/FVPv+06HrVdtzX+rFvs1lllqSpcLNPFGuB368j/5o62n8LV+dXcG8YKaaq4cYqAKGipznPIkdHYjocjGuuJbsw989Bn2+6jd+0H2E9Tu6/VBFRVbnvkPztNtG+TK5PpTRw80kTwytkdDq+2D8N9wVtyhvm8KX5KCmdZoKT1A7yuPpMgHQAf4++tfRFjUIihVUYAAwAPbXrSK/UlFJQ2kJnWafR6ekKCnFExpFLS0tLWbWjX/2Q==" vertex="1" parent="1">
          <mxGeometry x="1384" y="917" width="24" height="18" as="geometry" />
        </mxCell>
        <mxCell id="ziF4D768FHLYJ19X23WQ-125" style="vsdxID=172;fillColor=none;gradientColor=none;image;aspect=fixed;strokeColor=none;points=[];labelBackgroundColor=none;rounded=0;html=1;whiteSpace=wrap;;image=data:image/jpg,/9j/4AAQSkZJRgABAQAAAQABAAD/2wBDAAMCAgICAgMCAgIDAwMDBAYEBAQEBAgGBgUGCQgKCgkICQkKDA8MCgsOCwkJDRENDg8QEBEQCgwSExIQEw8QEBD/2wBDAQMDAwQDBAgEBAgQCwkLEBAQEBAQEBAQEBAQEBAQEBAQEBAQEBAQEBAQEBAQEBAQEBAQEBAQEBAQEBAQEBAQEBD/wAARCAAvAFMDASIAAhEBAxEB/8QAHAAAAQUBAQEAAAAAAAAAAAAABgADBAUHAQIJ/8QAMRAAAgEDAwMCBAUEAwAAAAAAAQIDBAURAAYSITFBE1EHFDJhFyIjYoEVFlJxJHKx/8QAGQEAAgMBAAAAAAAAAAAAAAAAAwQAAgUB/8QALBEAAQMBBQcEAwEAAAAAAAAAAQIDEQAEEiExcRNBUWGBkdEFI6HBIkLw4f/aAAwDAQACEQMRAD8A+qelqPXV9FbKdqu4VcVPCvd5GCjPt17n7aFbpue3bhuFn27ZrxE0N29dqloJMTLFGgbjj6k5ZwSQDorbKnMQMOOmNCcdS3mceGuFEcV/sU9QKOC9UEk7NwES1KFy3tgHOdVdddLzdrnU2TbU0FMKPitZWzJz4MwyFjXszAd89B21Kl2btSanNK+3qAIV45WBVfH/AGGGz9851GjoKTbdMLDtSiipWlZp2JJZUJPV2ySSToqNlMoknnEa/wCRQnFOJH55cpk8h5mmfw8sdV+pfZ6+7zeJKuqf8nuFCkADPjrpf2SbZ+ptS9VlsK9VpnkM1KffKNk5Pvnp41PtRv0M0jXevpqiIqOCxRcCD9zq2SVZM48ai3nkmCqR8dj4rjbbTgm7B+e480NfiBZLf/xNySNbbhH0lhMMjrn/ACVlUgqe41bWfcVkv8bSWi4xVHH6lGVdfuVOGA++NPV4eeEpTSoso6qXzx/nGhWutk1TdFKzLbLpEhkjro1ViUHQ5B+tf2nXUoadGEg6yO0THU9aqt11o44jTHvMfAo20tZxHfd32qb5ye/R3mGI/npfk0hMi+SrKfq9geh0U2HfW1dyKv8ATLxA0pbgYXbhIH8rxbBJHnGdVcsjjYvDEcRPirM21p43Zg8DFX2lpaWlqboUsEFHu923Tc6GnnjE0kdtDrnhCrY5EHpyLAnqOmOmiGO12yKra4RW6lSqfPKdYVEhz3y2M6DqKvPw/kezXRljt3qSPQzuwVDGTy9NmPZwSe/cHpqbN8Sdv+pB6FQs8Ex4M8bA8D5OR0I086y6tUtyU7tP7PnSTbrSE+4QFb9f7LlRLJVspPpwFwPPIDOq1Ek9aaplXjJK/bOcKOw08t1tk8Kyw19OUYZB9QDprjOkih43DKeoIOQdBSCnCKss3sZpszFe51z5nHZtNS+f9ajuSOx0QJBpYuEVM+Y/dpmopbbWTR1FZHK7xoY8CTCspOcEedQzOV76SVHqTx06HMkpwi++rhBGIqm2nA16ue2bPU2+Wqt0LQPCpLIkhAYDvn+POh6pprI1LHStQQqiJ+jIEAkjz1yrdwc9c6Iai9UdHRzUPzSmab8jEqeMfgg5847aDdx1VNTwNLFOgjhHflnA8aYs4Wo3STyqO3EpvACd9Rpd8b+s8jW2jWS4QQEiKoljDu6nqOTHGSAcE/bS1SRU/wAQ7jGtbZdrvPRSjMMshKM47Zweo65/jS1pbFj9gidR5rP2z36lcaHxW+VdFR18Jp66khqYiQeEsYdcjscHprFPiLYBtTc6V8UMNPZrkcwpDHxjp5gMyFsDChuhz28a3HTc9PBVQvT1UEc0Ugw6SKGVh7EHodYNktarKucxvFbtrsqbSiMjxrMtsxU8yo7RRuGAIJUHOr6K7Q25/k0gkkpyx9MxgEx/tx7Z07L8KNgyuZBYEjYsWPpzSKCT9g2s13FeazaF5nst5cqqyYpZlGRLEfoyFyQcdDkeO+n2wi2rIbJngfrE0g5fsaAXAI4j7wFaLUX+lYOtLHJKy9MkcUDY7EntqKaiqYJMldCWcZkjYEoOnTiR11nFdvGCjRRVyMBKSirxJ5H21bW7bO9ht5L/AG3056WTlKKKeVVljjHYq4JXGAehOdFNkDSQVGJynfQBaA4ohIvRnG6iesJXlWVc/rLEMpHT5UqcfV17/wCtUtVummgpTXxVUbcU6yM/FVPv+06HrVdtzX+rFvs1lllqSpcLNPFGuB368j/5o62n8LV+dXcG8YKaaq4cYqAKGipznPIkdHYjocjGuuJbsw989Bn2+6jd+0H2E9Tu6/VBFRVbnvkPztNtG+TK5PpTRw80kTwytkdDq+2D8N9wVtyhvm8KX5KCmdZoKT1A7yuPpMgHQAf4++tfRFjUIihVUYAAwAPbXrSK/UlFJQ2kJnWafR6ekKCnFExpFLS0tLWbWjX/2Q==" vertex="1" parent="1">
          <mxGeometry x="1674" y="917" width="24" height="18" as="geometry" />
        </mxCell>
        <mxCell id="ziF4D768FHLYJ19X23WQ-127" style="vsdxID=167;fillColor=none;gradientColor=none;image;aspect=fixed;strokeColor=none;points=[];labelBackgroundColor=none;rounded=0;html=1;whiteSpace=wrap;;image=data:image/jpg,/9j/4AAQSkZJRgABAQAAAQABAAD/2wBDAAMCAgICAgMCAgIDAwMDBAYEBAQEBAgGBgUGCQgKCgkICQkKDA8MCgsOCwkJDRENDg8QEBEQCgwSExIQEw8QEBD/2wBDAQMDAwQDBAgEBAgQCwkLEBAQEBAQEBAQEBAQEBAQEBAQEBAQEBAQEBAQEBAQEBAQEBAQEBAQEBAQEBAQEBAQEBD/wAARCAAvAFMDASIAAhEBAxEB/8QAHAAAAQUBAQEAAAAAAAAAAAAABgADBAUHAQIJ/8QAMRAAAgEDAwMCBAUEAwAAAAAAAQIDBAURAAYSITFBE1EHFDJhFyIjYoEVFlJxJHKx/8QAGQEAAgMBAAAAAAAAAAAAAAAAAwQAAgUB/8QALBEAAQMBBQcEAwEAAAAAAAAAAQIDEQAEEiExcRNBUWGBkdEFI6HBIkLw4f/aAAwDAQACEQMRAD8A+qelqPXV9FbKdqu4VcVPCvd5GCjPt17n7aFbpue3bhuFn27ZrxE0N29dqloJMTLFGgbjj6k5ZwSQDorbKnMQMOOmNCcdS3mceGuFEcV/sU9QKOC9UEk7NwES1KFy3tgHOdVdddLzdrnU2TbU0FMKPitZWzJz4MwyFjXszAd89B21Kl2btSanNK+3qAIV45WBVfH/AGGGz9851GjoKTbdMLDtSiipWlZp2JJZUJPV2ySSToqNlMoknnEa/wCRQnFOJH55cpk8h5mmfw8sdV+pfZ6+7zeJKuqf8nuFCkADPjrpf2SbZ+ptS9VlsK9VpnkM1KffKNk5Pvnp41PtRv0M0jXevpqiIqOCxRcCD9zq2SVZM48ai3nkmCqR8dj4rjbbTgm7B+e480NfiBZLf/xNySNbbhH0lhMMjrn/ACVlUgqe41bWfcVkv8bSWi4xVHH6lGVdfuVOGA++NPV4eeEpTSoso6qXzx/nGhWutk1TdFKzLbLpEhkjro1ViUHQ5B+tf2nXUoadGEg6yO0THU9aqt11o44jTHvMfAo20tZxHfd32qb5ye/R3mGI/npfk0hMi+SrKfq9geh0U2HfW1dyKv8ATLxA0pbgYXbhIH8rxbBJHnGdVcsjjYvDEcRPirM21p43Zg8DFX2lpaWlqboUsEFHu923Tc6GnnjE0kdtDrnhCrY5EHpyLAnqOmOmiGO12yKra4RW6lSqfPKdYVEhz3y2M6DqKvPw/kezXRljt3qSPQzuwVDGTy9NmPZwSe/cHpqbN8Sdv+pB6FQs8Ex4M8bA8D5OR0I086y6tUtyU7tP7PnSTbrSE+4QFb9f7LlRLJVspPpwFwPPIDOq1Ek9aaplXjJK/bOcKOw08t1tk8Kyw19OUYZB9QDprjOkih43DKeoIOQdBSCnCKss3sZpszFe51z5nHZtNS+f9ajuSOx0QJBpYuEVM+Y/dpmopbbWTR1FZHK7xoY8CTCspOcEedQzOV76SVHqTx06HMkpwi++rhBGIqm2nA16ue2bPU2+Wqt0LQPCpLIkhAYDvn+POh6pprI1LHStQQqiJ+jIEAkjz1yrdwc9c6Iai9UdHRzUPzSmab8jEqeMfgg5847aDdx1VNTwNLFOgjhHflnA8aYs4Wo3STyqO3EpvACd9Rpd8b+s8jW2jWS4QQEiKoljDu6nqOTHGSAcE/bS1SRU/wAQ7jGtbZdrvPRSjMMshKM47Zweo65/jS1pbFj9gidR5rP2z36lcaHxW+VdFR18Jp66khqYiQeEsYdcjscHprFPiLYBtTc6V8UMNPZrkcwpDHxjp5gMyFsDChuhz28a3HTc9PBVQvT1UEc0Ugw6SKGVh7EHodYNktarKucxvFbtrsqbSiMjxrMtsxU8yo7RRuGAIJUHOr6K7Q25/k0gkkpyx9MxgEx/tx7Z07L8KNgyuZBYEjYsWPpzSKCT9g2s13FeazaF5nst5cqqyYpZlGRLEfoyFyQcdDkeO+n2wi2rIbJngfrE0g5fsaAXAI4j7wFaLUX+lYOtLHJKy9MkcUDY7EntqKaiqYJMldCWcZkjYEoOnTiR11nFdvGCjRRVyMBKSirxJ5H21bW7bO9ht5L/AG3056WTlKKKeVVljjHYq4JXGAehOdFNkDSQVGJynfQBaA4ohIvRnG6iesJXlWVc/rLEMpHT5UqcfV17/wCtUtVummgpTXxVUbcU6yM/FVPv+06HrVdtzX+rFvs1lllqSpcLNPFGuB368j/5o62n8LV+dXcG8YKaaq4cYqAKGipznPIkdHYjocjGuuJbsw989Bn2+6jd+0H2E9Tu6/VBFRVbnvkPztNtG+TK5PpTRw80kTwytkdDq+2D8N9wVtyhvm8KX5KCmdZoKT1A7yuPpMgHQAf4++tfRFjUIihVUYAAwAPbXrSK/UlFJQ2kJnWafR6ekKCnFExpFLS0tLWbWjX/2Q==" vertex="1" parent="1">
          <mxGeometry x="1674" y="955" width="24" height="18" as="geometry" />
        </mxCell>
        <mxCell id="ziF4D768FHLYJ19X23WQ-129" style="vsdxID=169;fillColor=none;gradientColor=none;image;aspect=fixed;strokeColor=none;points=[];labelBackgroundColor=none;rounded=0;html=1;whiteSpace=wrap;;image=data:image/jpg,/9j/4AAQSkZJRgABAQAAAQABAAD/2wBDAAMCAgICAgMCAgIDAwMDBAYEBAQEBAgGBgUGCQgKCgkICQkKDA8MCgsOCwkJDRENDg8QEBEQCgwSExIQEw8QEBD/2wBDAQMDAwQDBAgEBAgQCwkLEBAQEBAQEBAQEBAQEBAQEBAQEBAQEBAQEBAQEBAQEBAQEBAQEBAQEBAQEBAQEBAQEBD/wAARCAAvAFMDASIAAhEBAxEB/8QAHAAAAQUBAQEAAAAAAAAAAAAABgADBAUHAQIJ/8QAMRAAAgEDAwMCBAUEAwAAAAAAAQIDBAURAAYSITFBE1EHFDJhFyIjYoEVFlJxJHKx/8QAGQEAAgMBAAAAAAAAAAAAAAAAAwQAAgUB/8QALBEAAQMBBQcEAwEAAAAAAAAAAQIDEQAEEiExcRNBUWGBkdEFI6HBIkLw4f/aAAwDAQACEQMRAD8A+qelqPXV9FbKdqu4VcVPCvd5GCjPt17n7aFbpue3bhuFn27ZrxE0N29dqloJMTLFGgbjj6k5ZwSQDorbKnMQMOOmNCcdS3mceGuFEcV/sU9QKOC9UEk7NwES1KFy3tgHOdVdddLzdrnU2TbU0FMKPitZWzJz4MwyFjXszAd89B21Kl2btSanNK+3qAIV45WBVfH/AGGGz9851GjoKTbdMLDtSiipWlZp2JJZUJPV2ySSToqNlMoknnEa/wCRQnFOJH55cpk8h5mmfw8sdV+pfZ6+7zeJKuqf8nuFCkADPjrpf2SbZ+ptS9VlsK9VpnkM1KffKNk5Pvnp41PtRv0M0jXevpqiIqOCxRcCD9zq2SVZM48ai3nkmCqR8dj4rjbbTgm7B+e480NfiBZLf/xNySNbbhH0lhMMjrn/ACVlUgqe41bWfcVkv8bSWi4xVHH6lGVdfuVOGA++NPV4eeEpTSoso6qXzx/nGhWutk1TdFKzLbLpEhkjro1ViUHQ5B+tf2nXUoadGEg6yO0THU9aqt11o44jTHvMfAo20tZxHfd32qb5ye/R3mGI/npfk0hMi+SrKfq9geh0U2HfW1dyKv8ATLxA0pbgYXbhIH8rxbBJHnGdVcsjjYvDEcRPirM21p43Zg8DFX2lpaWlqboUsEFHu923Tc6GnnjE0kdtDrnhCrY5EHpyLAnqOmOmiGO12yKra4RW6lSqfPKdYVEhz3y2M6DqKvPw/kezXRljt3qSPQzuwVDGTy9NmPZwSe/cHpqbN8Sdv+pB6FQs8Ex4M8bA8D5OR0I086y6tUtyU7tP7PnSTbrSE+4QFb9f7LlRLJVspPpwFwPPIDOq1Ek9aaplXjJK/bOcKOw08t1tk8Kyw19OUYZB9QDprjOkih43DKeoIOQdBSCnCKss3sZpszFe51z5nHZtNS+f9ajuSOx0QJBpYuEVM+Y/dpmopbbWTR1FZHK7xoY8CTCspOcEedQzOV76SVHqTx06HMkpwi++rhBGIqm2nA16ue2bPU2+Wqt0LQPCpLIkhAYDvn+POh6pprI1LHStQQqiJ+jIEAkjz1yrdwc9c6Iai9UdHRzUPzSmab8jEqeMfgg5847aDdx1VNTwNLFOgjhHflnA8aYs4Wo3STyqO3EpvACd9Rpd8b+s8jW2jWS4QQEiKoljDu6nqOTHGSAcE/bS1SRU/wAQ7jGtbZdrvPRSjMMshKM47Zweo65/jS1pbFj9gidR5rP2z36lcaHxW+VdFR18Jp66khqYiQeEsYdcjscHprFPiLYBtTc6V8UMNPZrkcwpDHxjp5gMyFsDChuhz28a3HTc9PBVQvT1UEc0Ugw6SKGVh7EHodYNktarKucxvFbtrsqbSiMjxrMtsxU8yo7RRuGAIJUHOr6K7Q25/k0gkkpyx9MxgEx/tx7Z07L8KNgyuZBYEjYsWPpzSKCT9g2s13FeazaF5nst5cqqyYpZlGRLEfoyFyQcdDkeO+n2wi2rIbJngfrE0g5fsaAXAI4j7wFaLUX+lYOtLHJKy9MkcUDY7EntqKaiqYJMldCWcZkjYEoOnTiR11nFdvGCjRRVyMBKSirxJ5H21bW7bO9ht5L/AG3056WTlKKKeVVljjHYq4JXGAehOdFNkDSQVGJynfQBaA4ohIvRnG6iesJXlWVc/rLEMpHT5UqcfV17/wCtUtVummgpTXxVUbcU6yM/FVPv+06HrVdtzX+rFvs1lllqSpcLNPFGuB368j/5o62n8LV+dXcG8YKaaq4cYqAKGipznPIkdHYjocjGuuJbsw989Bn2+6jd+0H2E9Tu6/VBFRVbnvkPztNtG+TK5PpTRw80kTwytkdDq+2D8N9wVtyhvm8KX5KCmdZoKT1A7yuPpMgHQAf4++tfRFjUIihVUYAAwAPbXrSK/UlFJQ2kJnWafR6ekKCnFExpFLS0tLWbWjX/2Q==" vertex="1" parent="1">
          <mxGeometry x="1851" y="955" width="24" height="18" as="geometry" />
        </mxCell>
        <mxCell id="ziF4D768FHLYJ19X23WQ-154" value="&lt;div style=&quot;font-size: 1px&quot;&gt;&lt;font style=&quot;font-size:19.76px;font-family:Microsoft YaHei;color:#ffffff;direction:ltr;letter-spacing:0px;line-height:120%;opacity:1&quot;&gt;&lt;b&gt;运营管理系统&lt;br/&gt;&lt;/b&gt;&lt;/font&gt;&lt;/div&gt;" style="verticalAlign=middle;align=center;vsdxID=4711;fillColor=#4672c4;gradientColor=none;shape=stencil(nZBLDoAgDERP0z3SIyjew0SURgSD+Lu9kMZoXLhwN9O+tukAlrNpJg1SzDH4QW/URgNYgZTkjA4UkwJUgGXng+6DX1zLfmoymdXo17xh5zmRJ6Q42BWCfc2oJfdAr+Yv+AP9Cb7OJ3H/2JG1HNGz/84klThPVCc=);strokeColor=#4672c4;points=[[1,0.5,0],[0.5,0,0],[0.5,0.5,0],[0.5,0.5,0]];labelBackgroundColor=none;rounded=0;html=1;whiteSpace=wrap;" vertex="1" parent="1">
          <mxGeometry x="1477" y="1040" width="397" height="35" as="geometry" />
        </mxCell>
        <mxCell id="ziF4D768FHLYJ19X23WQ-195" value="&lt;div style=&quot;font-size: 1px&quot;&gt;&lt;font style=&quot;font-size:19.76px;font-family:Microsoft YaHei;color:#ffffff;direction:ltr;letter-spacing:0px;line-height:120%;opacity:1&quot;&gt;&lt;b&gt;患者服务系统&lt;/b&gt;&lt;/font&gt;&lt;font style=&quot;font-size:19.76px;font-family:Microsoft YaHei;color:#ffffff;direction:ltr;letter-spacing:0px;line-height:120%;opacity:1&quot;&gt;&lt;b&gt;&lt;br&gt;&lt;/b&gt;&lt;/font&gt;&lt;/div&gt;" style="verticalAlign=middle;align=center;vsdxID=4752;fillColor=#4672c4;gradientColor=none;shape=stencil(nZBLDoAgDERP0z3SIyjew0SURgSD+Lu9kMZoXLhwN9O+tukAlrNpJg1SzDH4QW/URgNYgZTkjA4UkwJUgGXng+6DX1zLfmoymdXo17xh5zmRJ6Q42BWCfc2oJfdAr+Yv+AP9Cb7OJ3H/2JG1HNGz/84klThPVCc=);strokeColor=#4672c4;points=[[1,0.5,0],[0.5,0,0],[0.5,0.5,0],[0.5,0.5,0]];labelBackgroundColor=none;rounded=0;html=1;whiteSpace=wrap;" vertex="1" parent="1">
          <mxGeometry x="57" y="935" width="220" height="35" as="geometry" />
        </mxCell>
        <mxCell id="ziF4D768FHLYJ19X23WQ-197" value="&lt;div style=&quot;font-size: 1px&quot;&gt;&lt;font style=&quot;font-size:19.76px;font-family:Microsoft YaHei;color:#ffffff;direction:ltr;letter-spacing:0px;line-height:120%;opacity:1&quot;&gt;&lt;b&gt;HIS系统&lt;br/&gt;&lt;/b&gt;&lt;/font&gt;&lt;/div&gt;" style="verticalAlign=middle;align=center;vsdxID=69;fillColor=#4672c4;gradientColor=none;shape=stencil(nZBLDoAgDERP0z3SIyjew0SURgSD+Lu9kMZoXLhwN9O+tukAlrNpJg1SzDH4QW/URgNYgZTkjA4UkwJUgGXng+6DX1zLfmoymdXo17xh5zmRJ6Q42BWCfc2oJfdAr+Yv+AP9Cb7OJ3H/2JG1HNGz/84klThPVCc=);strokeColor=#4672c4;points=[[1,0.5,0],[0.5,0,0],[0.5,0.5,0],[0.5,0.5,0]];labelBackgroundColor=none;rounded=0;html=1;whiteSpace=wrap;" vertex="1" parent="1">
          <mxGeometry x="57" y="810" width="263" height="70" as="geometry" />
        </mxCell>
        <mxCell id="ziF4D768FHLYJ19X23WQ-318" style="vsdxID=178;fillColor=none;gradientColor=none;image;aspect=fixed;strokeColor=none;points=[];labelBackgroundColor=none;rounded=0;html=1;whiteSpace=wrap;;image=data:image/jpg,/9j/4AAQSkZJRgABAQAAAQABAAD/2wBDAAMCAgICAgMCAgIDAwMDBAYEBAQEBAgGBgUGCQgKCgkICQkKDA8MCgsOCwkJDRENDg8QEBEQCgwSExIQEw8QEBD/2wBDAQMDAwQDBAgEBAgQCwkLEBAQEBAQEBAQEBAQEBAQEBAQEBAQEBAQEBAQEBAQEBAQEBAQEBAQEBAQEBAQEBAQEBD/wAARCAAvAFMDASIAAhEBAxEB/8QAHAAAAQUBAQEAAAAAAAAAAAAABgADBAUHAQIJ/8QAMRAAAgEDAwMCBAUEAwAAAAAAAQIDBAURAAYSITFBE1EHFDJhFyIjYoEVFlJxJHKx/8QAGQEAAgMBAAAAAAAAAAAAAAAAAwQAAgUB/8QALBEAAQMBBQcEAwEAAAAAAAAAAQIDEQAEEiExcRNBUWGBkdEFI6HBIkLw4f/aAAwDAQACEQMRAD8A+qelqPXV9FbKdqu4VcVPCvd5GCjPt17n7aFbpue3bhuFn27ZrxE0N29dqloJMTLFGgbjj6k5ZwSQDorbKnMQMOOmNCcdS3mceGuFEcV/sU9QKOC9UEk7NwES1KFy3tgHOdVdddLzdrnU2TbU0FMKPitZWzJz4MwyFjXszAd89B21Kl2btSanNK+3qAIV45WBVfH/AGGGz9851GjoKTbdMLDtSiipWlZp2JJZUJPV2ySSToqNlMoknnEa/wCRQnFOJH55cpk8h5mmfw8sdV+pfZ6+7zeJKuqf8nuFCkADPjrpf2SbZ+ptS9VlsK9VpnkM1KffKNk5Pvnp41PtRv0M0jXevpqiIqOCxRcCD9zq2SVZM48ai3nkmCqR8dj4rjbbTgm7B+e480NfiBZLf/xNySNbbhH0lhMMjrn/ACVlUgqe41bWfcVkv8bSWi4xVHH6lGVdfuVOGA++NPV4eeEpTSoso6qXzx/nGhWutk1TdFKzLbLpEhkjro1ViUHQ5B+tf2nXUoadGEg6yO0THU9aqt11o44jTHvMfAo20tZxHfd32qb5ye/R3mGI/npfk0hMi+SrKfq9geh0U2HfW1dyKv8ATLxA0pbgYXbhIH8rxbBJHnGdVcsjjYvDEcRPirM21p43Zg8DFX2lpaWlqboUsEFHu923Tc6GnnjE0kdtDrnhCrY5EHpyLAnqOmOmiGO12yKra4RW6lSqfPKdYVEhz3y2M6DqKvPw/kezXRljt3qSPQzuwVDGTy9NmPZwSe/cHpqbN8Sdv+pB6FQs8Ex4M8bA8D5OR0I086y6tUtyU7tP7PnSTbrSE+4QFb9f7LlRLJVspPpwFwPPIDOq1Ek9aaplXjJK/bOcKOw08t1tk8Kyw19OUYZB9QDprjOkih43DKeoIOQdBSCnCKss3sZpszFe51z5nHZtNS+f9ajuSOx0QJBpYuEVM+Y/dpmopbbWTR1FZHK7xoY8CTCspOcEedQzOV76SVHqTx06HMkpwi++rhBGIqm2nA16ue2bPU2+Wqt0LQPCpLIkhAYDvn+POh6pprI1LHStQQqiJ+jIEAkjz1yrdwc9c6Iai9UdHRzUPzSmab8jEqeMfgg5847aDdx1VNTwNLFOgjhHflnA8aYs4Wo3STyqO3EpvACd9Rpd8b+s8jW2jWS4QQEiKoljDu6nqOTHGSAcE/bS1SRU/wAQ7jGtbZdrvPRSjMMshKM47Zweo65/jS1pbFj9gidR5rP2z36lcaHxW+VdFR18Jp66khqYiQeEsYdcjscHprFPiLYBtTc6V8UMNPZrkcwpDHxjp5gMyFsDChuhz28a3HTc9PBVQvT1UEc0Ugw6SKGVh7EHodYNktarKucxvFbtrsqbSiMjxrMtsxU8yo7RRuGAIJUHOr6K7Q25/k0gkkpyx9MxgEx/tx7Z07L8KNgyuZBYEjYsWPpzSKCT9g2s13FeazaF5nst5cqqyYpZlGRLEfoyFyQcdDkeO+n2wi2rIbJngfrE0g5fsaAXAI4j7wFaLUX+lYOtLHJKy9MkcUDY7EntqKaiqYJMldCWcZkjYEoOnTiR11nFdvGCjRRVyMBKSirxJ5H21bW7bO9ht5L/AG3056WTlKKKeVVljjHYq4JXGAehOdFNkDSQVGJynfQBaA4ohIvRnG6iesJXlWVc/rLEMpHT5UqcfV17/wCtUtVummgpTXxVUbcU6yM/FVPv+06HrVdtzX+rFvs1lllqSpcLNPFGuB368j/5o62n8LV+dXcG8YKaaq4cYqAKGipznPIkdHYjocjGuuJbsw989Bn2+6jd+0H2E9Tu6/VBFRVbnvkPztNtG+TK5PpTRw80kTwytkdDq+2D8N9wVtyhvm8KX5KCmdZoKT1A7yuPpMgHQAf4++tfRFjUIihVUYAAwAPbXrSK/UlFJQ2kJnWafR6ekKCnFExpFLS0tLWbWjX/2Q==" vertex="1" parent="1">
          <mxGeometry x="1512" y="917" width="24" height="18" as="geometry" />
        </mxCell>
        <mxCell id="ziF4D768FHLYJ19X23WQ-83" value="&lt;div style=&quot;font-size: 1px&quot;&gt;&lt;font style=&quot;font-size:19.76px;font-family:Microsoft YaHei;color:#ffffff;direction:ltr;letter-spacing:0px;line-height:120%;opacity:1&quot;&gt;&lt;b&gt;检查系统&lt;br/&gt;&lt;/b&gt;&lt;/font&gt;&lt;/div&gt;" style="verticalAlign=middle;align=center;vsdxID=4291;fillColor=#4672c4;gradientColor=none;shape=stencil(nZBLDoAgDERP0z3SIyjew0SURgSD+Lu9kMZoXLhwN9O+tukAlrNpJg1SzDH4QW/URgNYgZTkjA4UkwJUgGXng+6DX1zLfmoymdXo17xh5zmRJ6Q42BWCfc2oJfdAr+Yv+AP9Cb7OJ3H/2JG1HNGz/84klThPVCc=);strokeColor=#4672c4;points=[[1,0.5,0],[0.5,0,0],[0.5,0.5,0],[0.5,0.5,0]];labelBackgroundColor=none;rounded=0;html=1;whiteSpace=wrap;" vertex="1" parent="1">
          <mxGeometry x="732" y="810" width="282" height="70" as="geometry" />
        </mxCell>
        <mxCell id="ziF4D768FHLYJ19X23WQ-106" value="&lt;div style=&quot;font-size: 1px&quot;&gt;&lt;font style=&quot;font-size:19.76px;font-family:Microsoft YaHei;color:#ffffff;direction:ltr;letter-spacing:0px;line-height:120%;opacity:1&quot;&gt;&lt;b&gt;临床路径系统&lt;br/&gt;&lt;/b&gt;&lt;/font&gt;&lt;/div&gt;" style="verticalAlign=middle;align=center;vsdxID=4247;fillColor=#4672c4;gradientColor=none;shape=stencil(nZBLDoAgDERP0z3SIyjew0SURgSD+Lu9kMZoXLhwN9O+tukAlrNpJg1SzDH4QW/URgNYgZTkjA4UkwJUgGXng+6DX1zLfmoymdXo17xh5zmRJ6Q42BWCfc2oJfdAr+Yv+AP9Cb7OJ3H/2JG1HNGz/84klThPVCc=);strokeColor=#4672c4;points=[[1,0.5,0],[0.5,0,0],[0.5,0.5,0],[0.5,0.5,0]];labelBackgroundColor=none;rounded=0;html=1;whiteSpace=wrap;" vertex="1" parent="1">
          <mxGeometry x="1390" y="810" width="227" height="70" as="geometry" />
        </mxCell>
        <mxCell id="ziF4D768FHLYJ19X23WQ-102" value="&lt;div style=&quot;font-size: 1px&quot;&gt;&lt;font style=&quot;font-size:19.76px;font-family:Microsoft YaHei;color:#FFFFFF;direction:ltr;letter-spacing:0px;line-height:120%;opacity:1&quot;&gt;&lt;b&gt;检验系统&lt;/b&gt;&lt;/font&gt;&lt;font style=&quot;font-size:19.76px;font-family:Microsoft YaHei;color:#ffffff;direction:ltr;letter-spacing:0px;line-height:120%;opacity:1&quot;&gt;&lt;b&gt;&lt;br/&gt;&lt;/b&gt;&lt;/font&gt;&lt;/div&gt;" style="verticalAlign=middle;align=center;vsdxID=4377;fillColor=#4672c4;gradientColor=none;shape=stencil(nZBLDoAgDERP0z3SIyjew0SURgSD+Lu9kMZoXLhwN9O+tukAlrNpJg1SzDH4QW/URgNYgZTkjA4UkwJUgGXng+6DX1zLfmoymdXo17xh5zmRJ6Q42BWCfc2oJfdAr+Yv+AP9Cb7OJ3H/2JG1HNGz/84klThPVCc=);strokeColor=#4672c4;points=[[1,0.5,0],[0.5,0,0],[0.5,0.5,0],[0.5,0.5,0]];labelBackgroundColor=none;rounded=0;html=1;whiteSpace=wrap;" vertex="1" parent="1">
          <mxGeometry x="1083" y="810" width="227" height="70" as="geometry" />
        </mxCell>
      </root>
    </mxGraphModel>
  </diagram>
</mxfile>
